<svg xmlns="http://www.w3.org/2000/svg" xmlns:xlink="http://www.w3.org/1999/xlink" width="1080" zoomAndPan="magnify" viewBox="0 0 810 809.999993" height="1080" preserveAspectRatio="xMidYMid meet" version="1.0"><path fill="#000000" d="M 161.257812 -0.550781 C 144.625 -0.550781 127.820312 3.707031 112.433594 12.605469 C 65.542969 39.644531 49.382812 99.875 76.460938 146.777344 C 103.535156 193.679688 163.75 209.800781 210.640625 182.757812 C 257.53125 155.675781 273.691406 95.445312 246.613281 48.542969 C 229.679688 19.226562 199.808594 1.941406 168.347656 -0.292969 C 165.984375 -0.464844 163.621094 -0.550781 161.257812 -0.550781 Z M 588.296875 13.636719 C 526.324219 14.925781 469.847656 55.980469 451.496094 118.101562 C 434.648438 112.082031 416.46875 108.773438 397.515625 108.773438 C 323.417969 108.773438 261.269531 158.941406 243.175781 227.167969 C 242.574219 226.867188 241.929688 226.609375 241.242188 226.4375 C 235.222656 224.847656 228.949219 224.117188 222.71875 224.289062 C 204.023438 224.761719 185.496094 233.101562 174.152344 249.007812 C 174.023438 249.179688 173.894531 249.394531 173.765625 249.609375 C 134.695312 315.253906 97.175781 381.671875 58.839844 447.535156 C 48.265625 464.558594 33.996094 486.613281 39.152344 511.160156 C 40.957031 521.863281 45.515625 532.007812 52.476562 540.480469 C 52.648438 540.652344 52.777344 540.824219 52.949219 540.996094 C 71.945312 560.425781 109.640625 592.625 147.503906 624.910156 C 183.820312 655.949219 220.097656 686.902344 238.792969 705.257812 L 238.792969 799.921875 C 238.792969 805.640625 244.335938 809.683594 249.792969 807.960938 C 250.609375 808.21875 251.46875 808.347656 252.332031 808.347656 L 547.941406 808.347656 C 547.984375 808.347656 548.027344 808.347656 548.113281 808.347656 L 657.152344 808.347656 C 657.410156 808.347656 657.625 808.347656 657.882812 808.304688 C 657.925781 808.304688 657.96875 808.304688 658.011719 808.304688 C 658.226562 808.261719 658.441406 808.261719 658.65625 808.21875 C 658.742188 808.175781 658.785156 808.175781 658.871094 808.175781 C 659.085938 808.132812 659.300781 808.046875 659.515625 808.003906 C 659.558594 808.003906 659.601562 807.960938 659.6875 807.960938 C 659.859375 807.875 660.03125 807.832031 660.203125 807.746094 C 660.289062 807.703125 660.417969 807.660156 660.503906 807.617188 C 660.675781 807.574219 660.804688 807.488281 660.933594 807.402344 C 661.0625 807.359375 661.148438 807.316406 661.277344 807.273438 C 661.40625 807.1875 661.535156 807.101562 661.664062 807.015625 C 661.75 806.972656 661.878906 806.886719 661.964844 806.800781 C 662.09375 806.714844 662.222656 806.628906 662.351562 806.542969 C 662.4375 806.457031 662.523438 806.371094 662.652344 806.285156 C 662.78125 806.199219 662.910156 806.070312 663.039062 805.941406 C 663.082031 805.855469 663.167969 805.8125 663.253906 805.726562 C 663.339844 805.597656 663.46875 805.46875 663.554688 805.339844 C 663.640625 805.253906 663.726562 805.167969 663.8125 805.082031 C 663.898438 804.953125 663.941406 804.867188 664.027344 804.738281 C 664.113281 804.609375 664.199219 804.480469 664.285156 804.351562 C 664.371094 804.265625 664.414062 804.179688 664.457031 804.09375 C 664.542969 803.921875 664.628906 803.75 664.714844 803.578125 C 664.757812 803.492188 664.800781 803.449219 664.800781 803.363281 C 664.886719 803.191406 664.972656 802.976562 665.058594 802.804688 C 665.058594 802.761719 665.101562 802.675781 665.101562 802.589844 C 665.1875 802.417969 665.230469 802.203125 665.316406 801.988281 C 665.316406 801.945312 665.316406 801.859375 665.359375 801.816406 C 665.402344 801.601562 665.445312 801.386719 665.445312 801.167969 C 665.488281 801.125 665.488281 801.039062 665.488281 800.996094 C 665.53125 800.738281 665.53125 800.523438 665.53125 800.308594 C 665.53125 800.179688 665.574219 800.050781 665.574219 799.921875 C 665.574219 799.835938 665.574219 799.707031 665.574219 799.621094 L 665.574219 642.878906 C 665.574219 595.246094 626.894531 556.6875 579.230469 556.6875 C 534.144531 556.6875 489.015625 556.558594 443.800781 557.03125 C 440.621094 556.472656 437.355469 557.761719 435.464844 560.425781 C 435.292969 560.640625 435.164062 560.855469 435.035156 561.113281 C 426.609375 574.054688 410.621094 582.308594 395.277344 581.320312 C 395.191406 581.320312 395.148438 581.320312 395.105469 581.277344 C 381.140625 580.675781 367.515625 572.679688 359.863281 560.898438 C 358.359375 558.449219 355.695312 556.988281 352.816406 556.945312 C 352.386719 556.945312 351.957031 556.988281 351.527344 557.03125 L 251.039062 557.03125 C 230.023438 536.308594 205.054688 514.554688 184.292969 494.265625 C 202.386719 460.644531 220.484375 426.984375 238.578125 393.367188 C 246.3125 474.316406 314.390625 537.425781 397.515625 537.425781 C 485.792969 537.425781 557.179688 466.191406 557.179688 378.019531 L 557.179688 301.238281 C 633.382812 319.597656 711.132812 274.027344 731.933594 197.890625 C 753.167969 120.292969 707.351562 39.988281 629.730469 18.796875 C 620.058594 16.128906 610.304688 14.496094 600.632812 13.894531 C 598.527344 13.765625 596.421875 13.679688 594.316406 13.636719 C 592.296875 13.59375 590.273438 13.59375 588.296875 13.636719 Z M 669.570312 346.121094 C 625.605469 345.433594 585.03125 374.582031 573.125 418.902344 C 559.117188 471.222656 590.273438 525.21875 642.582031 539.230469 C 694.886719 553.246094 748.867188 522.078125 762.878906 469.761719 C 776.933594 417.441406 745.730469 363.445312 693.425781 349.429688 C 686.890625 347.710938 680.359375 346.636719 673.828125 346.25 C 672.410156 346.164062 670.988281 346.121094 669.570312 346.121094 Z M 669.570312 346.121094 " fill-opacity="1" fill-rule="nonzero"/><path fill="#52575d" d="M 397.515625 125.625 C 470.621094 125.625 530.363281 179.621094 539.171875 250.082031 C 521.207031 246.597656 503.886719 239.503906 488.542969 229.488281 C 486.4375 227.210938 483.257812 226.308594 480.25 227.125 C 478.789062 227.425781 477.453125 228.113281 476.378906 229.144531 C 438.214844 254.679688 386.855469 259.753906 344.261719 242.515625 C 344.21875 242.515625 344.21875 242.515625 344.21875 242.515625 C 335.238281 238.902344 326.597656 234.390625 318.519531 229.058594 C 317.058594 227.726562 315.164062 226.953125 313.144531 226.910156 C 313.058594 226.910156 312.929688 226.910156 312.800781 226.910156 C 310.695312 226.867188 308.632812 227.683594 307.085938 229.101562 C 291.570312 239.332031 274.035156 246.554688 255.8125 250.082031 C 264.664062 179.621094 324.363281 125.625 397.515625 125.625 Z M 397.515625 125.625 " fill-opacity="1" fill-rule="nonzero"/><path fill="#6600a4" d="M 223.363281 241.226562 C 227.960938 241.097656 232.558594 241.570312 236.945312 242.730469 C 237.890625 242.988281 238.835938 243.117188 239.824219 243.074219 C 238.535156 251.242188 237.847656 259.625 237.847656 268.179688 L 237.847656 359.449219 C 237.503906 359.835938 237.203125 360.308594 236.988281 360.78125 C 213.691406 404.027344 190.398438 447.320312 167.144531 490.566406 C 165.210938 493.019531 164.824219 496.328125 166.070312 499.164062 C 166.070312 499.164062 166.070312 499.164062 166.070312 499.207031 C 166.113281 499.292969 166.15625 499.335938 166.199219 499.421875 C 166.757812 500.625 167.574219 501.703125 168.648438 502.5625 C 191.429688 525.175781 219.277344 549.164062 241.242188 571.085938 C 242.789062 572.59375 244.808594 573.453125 247 573.539062 C 247.773438 573.753906 248.632812 573.882812 249.449219 573.925781 L 348.476562 573.925781 C 359.347656 588.113281 376.195312 597.3125 394.289062 598.128906 C 414.621094 599.375 434.433594 589.875 446.597656 573.882812 C 490.777344 573.453125 535.003906 573.539062 579.230469 573.539062 C 617.867188 573.539062 648.683594 604.320312 648.683594 642.835938 L 648.683594 791.496094 L 556.234375 791.496094 L 556.234375 701.691406 C 556.320312 696.960938 552.453125 693.09375 547.683594 693.136719 C 543.042969 693.222656 539.34375 697.046875 539.386719 701.691406 L 539.386719 791.496094 L 255.640625 791.496094 L 255.640625 701.691406 C 255.640625 701.648438 255.640625 701.605469 255.640625 701.5625 C 255.640625 701.433594 255.640625 701.304688 255.597656 701.175781 C 255.511719 698.683594 254.265625 696.359375 252.289062 694.855469 C 232.902344 675.554688 195.726562 643.957031 158.421875 612.101562 C 120.726562 579.945312 83.164062 547.65625 65.414062 529.558594 C 61.546875 524.832031 58.710938 519.285156 56.988281 513.4375 C 56.945312 512.707031 56.816406 512.019531 56.601562 511.332031 C 56.257812 510.257812 55.957031 509.183594 55.742188 508.105469 C 55.3125 505.65625 55.097656 503.164062 55.097656 500.714844 C 55.140625 500.324219 55.097656 499.980469 55.054688 499.636719 C 55.613281 485.367188 64.253906 470.707031 73.148438 456.433594 C 73.191406 456.347656 73.234375 456.304688 73.277344 456.21875 C 111.617188 390.359375 149.09375 324.066406 187.949219 258.722656 C 195.769531 247.847656 209.566406 241.65625 223.363281 241.226562 Z M 223.363281 241.226562 " fill-opacity="1" fill-rule="nonzero"/><path fill="#ffccbc" d="M 312.84375 245.4375 C 295.136719 256.445312 275.324219 264.011719 254.695312 267.40625 C 254.695312 267.664062 254.695312 267.921875 254.695312 268.179688 L 254.695312 378.019531 C 254.695312 457.121094 318.21875 520.574219 397.515625 520.574219 C 476.765625 520.574219 540.332031 457.121094 540.332031 378.019531 L 540.332031 268.179688 C 540.332031 267.921875 540.332031 267.664062 540.332031 267.40625 C 519.703125 264.011719 499.890625 256.445312 482.226562 245.4375 C 439.589844 272.265625 384.578125 277.035156 337.945312 258.121094 C 329.21875 254.636719 320.796875 250.382812 312.84375 245.4375 Z M 397.515625 444.308594 C 415.394531 444.308594 433.230469 450.628906 446.597656 463.3125 C 450.035156 466.492188 450.207031 471.910156 446.984375 475.304688 C 443.757812 478.703125 438.34375 478.832031 434.992188 475.519531 C 415.351562 456.863281 379.675781 456.949219 359.992188 475.5625 C 356.640625 478.832031 351.269531 478.703125 348.042969 475.261719 C 344.820312 471.867188 344.992188 466.492188 348.429688 463.3125 C 361.796875 450.671875 379.675781 444.351562 397.515625 444.308594 Z M 397.515625 444.308594 " fill-opacity="1" fill-rule="nonzero"/><path fill="#cb6ce6" d="M 160.355469 16.257812 C 157.433594 16.300781 154.464844 16.472656 151.5 16.859375 C 141.015625 18.152344 130.613281 21.546875 120.855469 27.179688 C 81.832031 49.703125 68.550781 99.359375 91.074219 138.351562 C 113.59375 177.386719 163.234375 190.667969 202.214844 168.140625 C 241.242188 145.617188 254.523438 96.003906 232 56.96875 C 216.699219 30.445312 188.851562 15.828125 160.355469 16.257812 Z M 593.113281 30.445312 C 535.90625 29.542969 483.257812 67.03125 467.097656 124.636719 C 520.433594 150.429688 557.179688 204.941406 557.179688 268.179688 L 557.179688 283.828125 C 557.222656 283.828125 557.222656 283.828125 557.265625 283.871094 C 626.078125 302.65625 696.863281 262.289062 715.6875 193.464844 C 734.511719 124.679688 694.113281 53.875 625.304688 35.046875 C 614.558594 32.121094 603.769531 30.617188 593.113281 30.445312 Z M 148.921875 41.96875 C 160.742188 41.96875 172.476562 48.070312 179.265625 58.90625 C 181.84375 63.03125 183.519531 67.503906 184.292969 72.058594 C 185.066406 76.574219 184.980469 81.171875 184.078125 85.558594 C 183.175781 89.988281 181.414062 94.199219 178.835938 97.984375 C 178.835938 98.027344 178.792969 98.070312 178.792969 98.070312 C 175.226562 103.183594 174.796875 111.394531 178.019531 117.285156 L 178.019531 117.328125 C 178.277344 117.800781 178.664062 118.402344 179.136719 119.21875 C 184.722656 128.761719 170.582031 137.320312 164.695312 127.902344 C 164.179688 127 163.75 126.3125 163.320312 125.582031 C 163.277344 125.496094 163.234375 125.453125 163.191406 125.367188 C 156.875 113.761719 157.433594 99.488281 164.824219 88.695312 C 164.824219 88.652344 164.867188 88.609375 164.910156 88.566406 C 166.199219 86.632812 167.101562 84.441406 167.574219 82.164062 C 168.089844 79.839844 168.089844 77.390625 167.703125 74.941406 C 167.273438 72.53125 166.371094 70.125 164.953125 67.890625 C 159.28125 58.820312 148.148438 56.195312 139.855469 61.441406 C 131.558594 66.6875 129.066406 77.949219 134.738281 87.019531 C 140.671875 96.519531 126.445312 105.421875 120.46875 95.960938 C 110.15625 79.496094 114.582031 57.484375 130.871094 47.210938 C 134.953125 44.632812 139.339844 43.042969 143.851562 42.355469 C 145.527344 42.097656 147.203125 42.011719 148.921875 42.011719 Z M 602.351562 74.898438 C 605.574219 74.984375 608.886719 75.371094 612.152344 76.101562 C 638.410156 82.164062 654.398438 109.246094 648.125 135.941406 C 646.578125 142.648438 643.742188 148.753906 640.003906 154.042969 C 636.261719 159.285156 631.578125 163.757812 626.292969 167.195312 C 621.175781 170.507812 615.503906 172.828125 609.53125 174.074219 C 609.230469 174.160156 608.929688 174.203125 608.628906 174.246094 C 597.453125 176.222656 586.835938 185.683594 583.355469 197.203125 C 583.140625 198.105469 582.882812 199.179688 582.496094 200.6875 C 581.421875 205.285156 576.78125 208.125 572.222656 206.960938 C 567.625 205.800781 564.875 201.117188 566.164062 196.558594 C 566.550781 194.96875 566.851562 193.765625 567.152344 192.5625 C 567.195312 192.519531 567.195312 192.433594 567.238281 192.347656 C 572.480469 174.890625 587.136719 161.394531 604.714844 157.867188 C 605.015625 157.78125 605.316406 157.738281 605.617188 157.652344 C 609.703125 156.921875 613.613281 155.332031 617.136719 153.054688 C 620.617188 150.773438 623.757812 147.808594 626.25 144.28125 C 628.785156 140.757812 630.675781 136.628906 631.75 132.117188 C 636.003906 113.933594 625.433594 96.476562 608.371094 92.523438 C 591.308594 88.609375 573.941406 99.660156 569.6875 117.84375 C 568.65625 122.402344 564.101562 125.238281 559.546875 124.164062 C 554.988281 123.089844 552.195312 118.53125 553.269531 113.976562 C 557.996094 93.941406 573.984375 79.238281 592.769531 75.714844 C 595.90625 75.113281 599.085938 74.855469 602.351562 74.898438 Z M 184.164062 134.609375 C 184.207031 134.609375 184.25 134.609375 184.25 134.609375 C 189.023438 134.4375 193.019531 138.265625 193.019531 143.035156 C 193.019531 147.808594 189.023438 151.632812 184.25 151.460938 C 179.523438 151.632812 175.570312 147.851562 175.527344 143.078125 C 175.484375 138.351562 179.394531 134.480469 184.164062 134.609375 Z M 566.421875 224.589844 C 571.105469 224.503906 574.933594 228.328125 574.933594 233.015625 C 574.933594 237.699219 571.105469 241.484375 566.421875 241.441406 C 561.738281 241.484375 557.910156 237.699219 557.910156 233.015625 C 557.910156 228.328125 561.738281 224.503906 566.421875 224.589844 Z M 669.226562 362.929688 C 632.78125 362.328125 599.300781 386.402344 589.414062 423.289062 C 577.769531 466.792969 603.46875 511.289062 646.964844 522.9375 C 690.460938 534.589844 734.984375 508.925781 746.632812 465.417969 C 758.28125 421.914062 732.578125 377.375 689.085938 365.722656 C 683.667969 364.261719 678.167969 363.402344 672.796875 363.058594 C 671.59375 363.015625 670.429688 362.972656 669.226562 362.929688 Z M 675.03125 386.144531 C 677.351562 386.144531 679.671875 386.445312 682.035156 386.960938 C 700.816406 391.175781 712.292969 410.476562 707.953125 429.476562 C 706.878906 434.207031 704.902344 438.550781 702.234375 442.289062 C 699.570312 446.074219 696.261719 449.253906 692.523438 451.746094 C 688.742188 454.199219 684.527344 455.960938 680.015625 456.820312 C 679.972656 456.820312 679.929688 456.820312 679.84375 456.863281 C 673.742188 457.980469 667.722656 463.441406 665.789062 469.847656 C 665.660156 470.40625 665.488281 471.09375 665.230469 472.039062 C 662.480469 482.828125 646.277344 478.832031 648.898438 467.953125 C 649.15625 466.964844 649.328125 466.148438 649.542969 465.332031 C 649.585938 465.246094 649.585938 465.160156 649.628906 465.074219 C 653.367188 452.347656 663.941406 442.589844 676.921875 440.269531 C 679.15625 439.796875 681.347656 438.9375 683.28125 437.648438 C 685.257812 436.355469 687.019531 434.636719 688.441406 432.617188 C 689.859375 430.597656 690.933594 428.273438 691.535156 425.695312 C 693.898438 415.292969 687.882812 405.574219 678.296875 403.382812 C 668.753906 401.234375 659 407.46875 656.59375 417.871094 C 655.648438 422.515625 651.089844 425.394531 646.492188 424.363281 C 641.894531 423.289062 639.054688 418.6875 640.175781 414.089844 C 643.441406 399.859375 654.785156 389.324219 668.195312 386.746094 C 670.429688 386.316406 672.710938 386.101562 675.03125 386.144531 Z M 652.035156 484.074219 C 663.253906 484.074219 663.253906 500.886719 652.035156 500.929688 C 647.351562 500.929688 643.570312 497.144531 643.570312 492.5 C 643.570312 487.816406 647.351562 484.074219 652.035156 484.074219 Z M 652.035156 484.074219 " fill-opacity="1" fill-rule="nonzero"/></svg>