<svg xmlns="http://www.w3.org/2000/svg" xmlns:xlink="http://www.w3.org/1999/xlink" width="1080" zoomAndPan="magnify" viewBox="0 0 810 809.999993" height="1080" preserveAspectRatio="xMidYMid meet" version="1.0"><defs><clipPath id="630ee1796a"><path d="M 104.292969 119 L 705.792969 119 L 705.792969 493 L 104.292969 493 Z M 104.292969 119 " clip-rule="nonzero"/></clipPath><clipPath id="4ffe642bf2"><path d="M 215 417 L 651 417 L 651 768 L 215 768 Z M 215 417 " clip-rule="nonzero"/></clipPath><clipPath id="c9dc17dca7"><path d="M 181.992188 484.601562 L 583.40625 363.625 L 685.558594 702.566406 L 284.140625 823.542969 Z M 181.992188 484.601562 " clip-rule="nonzero"/></clipPath><clipPath id="407e8789d2"><path d="M 181.992188 484.601562 L 583.40625 363.625 L 685.558594 702.566406 L 284.140625 823.542969 Z M 181.992188 484.601562 " clip-rule="nonzero"/></clipPath><clipPath id="6d31af0265"><path d="M 457 608 L 626 608 L 626 756 L 457 756 Z M 457 608 " clip-rule="nonzero"/></clipPath><clipPath id="22e4f2dda8"><path d="M 181.992188 484.601562 L 583.40625 363.625 L 685.558594 702.566406 L 284.140625 823.542969 Z M 181.992188 484.601562 " clip-rule="nonzero"/></clipPath><clipPath id="7639183dd8"><path d="M 181.992188 484.601562 L 583.40625 363.625 L 685.558594 702.566406 L 284.140625 823.542969 Z M 181.992188 484.601562 " clip-rule="nonzero"/></clipPath><clipPath id="c360c898e4"><path d="M 245 425 L 643 425 L 643 696 L 245 696 Z M 245 425 " clip-rule="nonzero"/></clipPath><clipPath id="c6de3e365d"><path d="M 181.992188 484.601562 L 583.40625 363.625 L 685.558594 702.566406 L 284.140625 823.542969 Z M 181.992188 484.601562 " clip-rule="nonzero"/></clipPath><clipPath id="00e4b1874d"><path d="M 181.992188 484.601562 L 583.40625 363.625 L 685.558594 702.566406 L 284.140625 823.542969 Z M 181.992188 484.601562 " clip-rule="nonzero"/></clipPath><clipPath id="7d65d3abed"><path d="M 462 638 L 630 638 L 630 761 L 462 761 Z M 462 638 " clip-rule="nonzero"/></clipPath><clipPath id="4ef54fd234"><path d="M 181.992188 484.601562 L 583.40625 363.625 L 685.558594 702.566406 L 284.140625 823.542969 Z M 181.992188 484.601562 " clip-rule="nonzero"/></clipPath><clipPath id="6abfa546ab"><path d="M 181.992188 484.601562 L 583.40625 363.625 L 685.558594 702.566406 L 284.140625 823.542969 Z M 181.992188 484.601562 " clip-rule="nonzero"/></clipPath><clipPath id="41d8a30a70"><path d="M 222 522 L 469 522 L 469 758 L 222 758 Z M 222 522 " clip-rule="nonzero"/></clipPath><clipPath id="770c9900a2"><path d="M 181.992188 484.601562 L 583.40625 363.625 L 685.558594 702.566406 L 284.140625 823.542969 Z M 181.992188 484.601562 " clip-rule="nonzero"/></clipPath><clipPath id="94772a21ad"><path d="M 181.992188 484.601562 L 583.40625 363.625 L 685.558594 702.566406 L 284.140625 823.542969 Z M 181.992188 484.601562 " clip-rule="nonzero"/></clipPath><clipPath id="a61fd43da7"><path d="M 371 505 L 497 505 L 497 587 L 371 587 Z M 371 505 " clip-rule="nonzero"/></clipPath><clipPath id="49418e2d3c"><path d="M 181.992188 484.601562 L 583.40625 363.625 L 685.558594 702.566406 L 284.140625 823.542969 Z M 181.992188 484.601562 " clip-rule="nonzero"/></clipPath><clipPath id="85df4899d2"><path d="M 181.992188 484.601562 L 583.40625 363.625 L 685.558594 702.566406 L 284.140625 823.542969 Z M 181.992188 484.601562 " clip-rule="nonzero"/></clipPath><clipPath id="d4ddce58b2"><path d="M 215 417 L 651 417 L 651 768 L 215 768 Z M 215 417 " clip-rule="nonzero"/></clipPath><clipPath id="88cbe5c1f5"><path d="M 181.992188 484.601562 L 583.40625 363.625 L 685.558594 702.566406 L 284.140625 823.542969 Z M 181.992188 484.601562 " clip-rule="nonzero"/></clipPath><clipPath id="4572d3cdbd"><path d="M 181.992188 484.601562 L 583.40625 363.625 L 685.558594 702.566406 L 284.140625 823.542969 Z M 181.992188 484.601562 " clip-rule="nonzero"/></clipPath><clipPath id="c1ca7ed016"><path d="M 586 559 L 627 559 L 627 610 L 586 610 Z M 586 559 " clip-rule="nonzero"/></clipPath><clipPath id="3f44b54c8f"><path d="M 181.992188 484.601562 L 583.40625 363.625 L 685.558594 702.566406 L 284.140625 823.542969 Z M 181.992188 484.601562 " clip-rule="nonzero"/></clipPath><clipPath id="b7bc23b19b"><path d="M 181.992188 484.601562 L 583.40625 363.625 L 685.558594 702.566406 L 284.140625 823.542969 Z M 181.992188 484.601562 " clip-rule="nonzero"/></clipPath><clipPath id="679d1decb3"><path d="M 481 483 L 531 483 L 531 520 L 481 520 Z M 481 483 " clip-rule="nonzero"/></clipPath><clipPath id="a33c975285"><path d="M 181.992188 484.601562 L 583.40625 363.625 L 685.558594 702.566406 L 284.140625 823.542969 Z M 181.992188 484.601562 " clip-rule="nonzero"/></clipPath><clipPath id="f90086aa8b"><path d="M 181.992188 484.601562 L 583.40625 363.625 L 685.558594 702.566406 L 284.140625 823.542969 Z M 181.992188 484.601562 " clip-rule="nonzero"/></clipPath><clipPath id="d89e635f60"><path d="M 366 500 L 501 500 L 501 592 L 366 592 Z M 366 500 " clip-rule="nonzero"/></clipPath><clipPath id="edbae6fea6"><path d="M 181.992188 484.601562 L 583.40625 363.625 L 685.558594 702.566406 L 284.140625 823.542969 Z M 181.992188 484.601562 " clip-rule="nonzero"/></clipPath><clipPath id="604d8bd9cb"><path d="M 181.992188 484.601562 L 583.40625 363.625 L 685.558594 702.566406 L 284.140625 823.542969 Z M 181.992188 484.601562 " clip-rule="nonzero"/></clipPath><clipPath id="e310102507"><path d="M 449 657 L 515 657 L 515 684 L 449 684 Z M 449 657 " clip-rule="nonzero"/></clipPath><clipPath id="09369cb54e"><path d="M 181.992188 484.601562 L 583.40625 363.625 L 685.558594 702.566406 L 284.140625 823.542969 Z M 181.992188 484.601562 " clip-rule="nonzero"/></clipPath><clipPath id="61f6d3bf38"><path d="M 181.992188 484.601562 L 583.40625 363.625 L 685.558594 702.566406 L 284.140625 823.542969 Z M 181.992188 484.601562 " clip-rule="nonzero"/></clipPath><clipPath id="20acb62f58"><path d="M 367 431 L 449 431 L 449 462 L 367 462 Z M 367 431 " clip-rule="nonzero"/></clipPath><clipPath id="4d3cce3a32"><path d="M 181.992188 484.601562 L 583.40625 363.625 L 685.558594 702.566406 L 284.140625 823.542969 Z M 181.992188 484.601562 " clip-rule="nonzero"/></clipPath><clipPath id="cb7765d8b0"><path d="M 181.992188 484.601562 L 583.40625 363.625 L 685.558594 702.566406 L 284.140625 823.542969 Z M 181.992188 484.601562 " clip-rule="nonzero"/></clipPath><clipPath id="52f497a779"><path d="M 443 699 L 462 699 L 462 748 L 443 748 Z M 443 699 " clip-rule="nonzero"/></clipPath><clipPath id="622fa1e964"><path d="M 181.992188 484.601562 L 583.40625 363.625 L 685.558594 702.566406 L 284.140625 823.542969 Z M 181.992188 484.601562 " clip-rule="nonzero"/></clipPath><clipPath id="c2924dbe89"><path d="M 181.992188 484.601562 L 583.40625 363.625 L 685.558594 702.566406 L 284.140625 823.542969 Z M 181.992188 484.601562 " clip-rule="nonzero"/></clipPath><clipPath id="2470681665"><path d="M 335 571 L 397 571 L 397 623 L 335 623 Z M 335 571 " clip-rule="nonzero"/></clipPath><clipPath id="08e9b7f6a1"><path d="M 181.992188 484.601562 L 583.40625 363.625 L 685.558594 702.566406 L 284.140625 823.542969 Z M 181.992188 484.601562 " clip-rule="nonzero"/></clipPath><clipPath id="8001bd3e8d"><path d="M 181.992188 484.601562 L 583.40625 363.625 L 685.558594 702.566406 L 284.140625 823.542969 Z M 181.992188 484.601562 " clip-rule="nonzero"/></clipPath><clipPath id="a53702b220"><path d="M 391 659 L 407 659 L 407 710 L 391 710 Z M 391 659 " clip-rule="nonzero"/></clipPath><clipPath id="6548a3a1fa"><path d="M 181.992188 484.601562 L 583.40625 363.625 L 685.558594 702.566406 L 284.140625 823.542969 Z M 181.992188 484.601562 " clip-rule="nonzero"/></clipPath><clipPath id="1dd6aaf785"><path d="M 181.992188 484.601562 L 583.40625 363.625 L 685.558594 702.566406 L 284.140625 823.542969 Z M 181.992188 484.601562 " clip-rule="nonzero"/></clipPath><clipPath id="60da9fa61c"><path d="M 267 480 L 321 480 L 321 511 L 267 511 Z M 267 480 " clip-rule="nonzero"/></clipPath><clipPath id="0e4ae7b7dc"><path d="M 181.992188 484.601562 L 583.40625 363.625 L 685.558594 702.566406 L 284.140625 823.542969 Z M 181.992188 484.601562 " clip-rule="nonzero"/></clipPath><clipPath id="4a4567f7ce"><path d="M 181.992188 484.601562 L 583.40625 363.625 L 685.558594 702.566406 L 284.140625 823.542969 Z M 181.992188 484.601562 " clip-rule="nonzero"/></clipPath><clipPath id="a3a42cba2b"><path d="M 346 625 L 364 625 L 364 674 L 346 674 Z M 346 625 " clip-rule="nonzero"/></clipPath><clipPath id="c6d8fde699"><path d="M 181.992188 484.601562 L 583.40625 363.625 L 685.558594 702.566406 L 284.140625 823.542969 Z M 181.992188 484.601562 " clip-rule="nonzero"/></clipPath><clipPath id="c5558f8216"><path d="M 181.992188 484.601562 L 583.40625 363.625 L 685.558594 702.566406 L 284.140625 823.542969 Z M 181.992188 484.601562 " clip-rule="nonzero"/></clipPath><clipPath id="d68d532cab"><path d="M 305 590 L 322 590 L 322 641 L 305 641 Z M 305 590 " clip-rule="nonzero"/></clipPath><clipPath id="5fc111ef2a"><path d="M 181.992188 484.601562 L 583.40625 363.625 L 685.558594 702.566406 L 284.140625 823.542969 Z M 181.992188 484.601562 " clip-rule="nonzero"/></clipPath><clipPath id="dbd9a5a4cd"><path d="M 181.992188 484.601562 L 583.40625 363.625 L 685.558594 702.566406 L 284.140625 823.542969 Z M 181.992188 484.601562 " clip-rule="nonzero"/></clipPath><clipPath id="59c05743eb"><path d="M 257 516 L 297 516 L 297 548 L 257 548 Z M 257 516 " clip-rule="nonzero"/></clipPath><clipPath id="9911d97818"><path d="M 181.992188 484.601562 L 583.40625 363.625 L 685.558594 702.566406 L 284.140625 823.542969 Z M 181.992188 484.601562 " clip-rule="nonzero"/></clipPath><clipPath id="15058a0a92"><path d="M 181.992188 484.601562 L 583.40625 363.625 L 685.558594 702.566406 L 284.140625 823.542969 Z M 181.992188 484.601562 " clip-rule="nonzero"/></clipPath><clipPath id="b9f25cab98"><path d="M 263 559 L 277 559 L 277 608 L 263 608 Z M 263 559 " clip-rule="nonzero"/></clipPath><clipPath id="2976c508ad"><path d="M 181.992188 484.601562 L 583.40625 363.625 L 685.558594 702.566406 L 284.140625 823.542969 Z M 181.992188 484.601562 " clip-rule="nonzero"/></clipPath><clipPath id="23ad099c28"><path d="M 181.992188 484.601562 L 583.40625 363.625 L 685.558594 702.566406 L 284.140625 823.542969 Z M 181.992188 484.601562 " clip-rule="nonzero"/></clipPath><clipPath id="3e2b8a2221"><path d="M 236 523 L 238 523 L 238 524 L 236 524 Z M 236 523 " clip-rule="nonzero"/></clipPath><clipPath id="a3650b6a5a"><path d="M 181.992188 484.601562 L 583.40625 363.625 L 685.558594 702.566406 L 284.140625 823.542969 Z M 181.992188 484.601562 " clip-rule="nonzero"/></clipPath><clipPath id="05188fcce7"><path d="M 181.992188 484.601562 L 583.40625 363.625 L 685.558594 702.566406 L 284.140625 823.542969 Z M 181.992188 484.601562 " clip-rule="nonzero"/></clipPath><clipPath id="cfdae415c5"><path d="M 223 528 L 238 528 L 238 581 L 223 581 Z M 223 528 " clip-rule="nonzero"/></clipPath><clipPath id="35ce3a0c24"><path d="M 181.992188 484.601562 L 583.40625 363.625 L 685.558594 702.566406 L 284.140625 823.542969 Z M 181.992188 484.601562 " clip-rule="nonzero"/></clipPath><clipPath id="18915053dc"><path d="M 181.992188 484.601562 L 583.40625 363.625 L 685.558594 702.566406 L 284.140625 823.542969 Z M 181.992188 484.601562 " clip-rule="nonzero"/></clipPath></defs><path fill="#9a17eb" d="M 157.605469 537.929688 C 163.425781 557.820312 181.710938 571.550781 202.472656 571.550781 L 202.472656 592.65625 L 607.613281 592.65625 L 607.613281 571.550781 C 628.375 571.550781 646.664062 557.820312 652.484375 537.929688 L 657.238281 521.628906 L 152.851562 521.628906 Z M 157.605469 537.929688 " fill-opacity="1" fill-rule="nonzero"/><g clip-path="url(#630ee1796a)"><path fill="#9a17eb" d="M 705.792969 298.125 L 589.375 298.125 L 560.5625 234.667969 L 569.972656 226.273438 L 556.726562 226.273438 L 540.867188 191.390625 L 525.003906 226.273438 L 453.550781 226.273438 L 405.042969 119.542969 L 356.535156 226.273438 L 285.082031 226.273438 L 269.222656 191.390625 L 253.359375 226.273438 L 240.117188 226.273438 L 249.527344 234.667969 L 220.714844 298.125 L 104.292969 298.125 L 196.460938 380.597656 L 152.800781 492.179688 L 269.222656 429.113281 L 385.640625 492.179688 L 345.476562 389.523438 L 405.042969 357.261719 L 464.613281 389.523438 L 424.445312 492.179688 L 540.867188 429.113281 L 657.285156 492.179688 L 613.628906 380.597656 Z M 705.792969 298.125 " fill-opacity="1" fill-rule="nonzero"/></g><path fill="#000000" d="M 202.472656 571.550781 L 607.613281 571.550781 L 607.613281 592.65625 L 202.472656 592.65625 Z M 202.472656 571.550781 " fill-opacity="1" fill-rule="nonzero"/><path fill="#000000" d="M 657.238281 521.628906 L 652.484375 537.929688 C 646.664062 557.820312 628.375 571.550781 607.613281 571.550781 L 202.472656 571.550781 C 181.710938 571.550781 163.425781 557.820312 157.605469 537.929688 L 152.851562 521.628906 Z M 657.238281 521.628906 " fill-opacity="1" fill-rule="nonzero"/><path fill="#d232ff" d="M 556.726562 226.273438 L 569.972656 226.273438 L 560.5625 234.667969 L 477.804688 308.75 L 521.464844 420.332031 L 464.613281 389.523438 L 405.042969 357.261719 L 345.476562 389.523438 L 288.625 420.332031 L 332.28125 308.75 L 249.527344 234.667969 L 240.117188 226.273438 L 356.535156 226.273438 L 405.042969 119.542969 L 453.550781 226.273438 Z M 556.726562 226.273438 " fill-opacity="1" fill-rule="nonzero"/><path fill="#ffffff" d="M 405.042969 101.445312 C 402.359375 101.445312 400.191406 99.273438 400.191406 96.59375 L 400.191406 27.363281 C 400.191406 24.6875 402.359375 22.511719 405.042969 22.511719 C 407.726562 22.511719 409.894531 24.6875 409.894531 27.363281 L 409.894531 96.59375 C 409.894531 99.273438 407.726562 101.445312 405.042969 101.445312 Z M 405.042969 101.445312 " fill-opacity="1" fill-rule="nonzero"/><path fill="#ffffff" d="M 282.222656 157.433594 C 280.890625 157.433594 279.566406 156.890625 278.613281 155.816406 L 226.078125 97.210938 C 224.289062 95.21875 224.453125 92.152344 226.445312 90.359375 C 228.445312 88.574219 231.511719 88.742188 233.296875 90.734375 L 285.832031 149.339844 C 287.621094 151.332031 287.457031 154.398438 285.460938 156.191406 C 284.53125 157.019531 283.375 157.433594 282.222656 157.433594 Z M 282.222656 157.433594 " fill-opacity="1" fill-rule="nonzero"/><path fill="#ffffff" d="M 527.867188 157.433594 C 526.710938 157.433594 525.550781 157.023438 524.625 156.195312 C 522.632812 154.40625 522.46875 151.339844 524.257812 149.34375 L 576.792969 90.738281 C 578.582031 88.742188 581.648438 88.585938 583.640625 90.367188 C 585.632812 92.15625 585.800781 95.222656 584.007812 97.214844 L 531.476562 155.820312 C 530.519531 156.882812 529.195312 157.433594 527.867188 157.433594 Z M 527.867188 157.433594 " fill-opacity="1" fill-rule="nonzero"/><g clip-path="url(#4ffe642bf2)"><g clip-path="url(#c9dc17dca7)"><g clip-path="url(#407e8789d2)"><path fill="#000000" d="M 598.097656 549.757812 C 576.296875 535.378906 555.175781 519.824219 533.765625 504.847656 C 512.453125 489.914062 491.148438 474.992188 469.878906 460.015625 C 459.375 452.640625 449.039062 445.257812 439.207031 436.996094 C 430.835938 429.960938 420.007812 426.476562 412.230469 418.8125 C 410.679688 417.28125 408.765625 417.660156 407.515625 418.808594 C 407.0625 418.875 406.5625 419.082031 406.078125 419.367188 C 374.355469 439.507812 339.683594 455.78125 306.75 473.894531 C 283.167969 486.835938 255.058594 494.957031 237.015625 515.972656 C 235.996094 516.03125 235.039062 516.191406 234 516.503906 C 233.28125 516.722656 232.773438 517.070312 232.378906 517.527344 C 232.039062 517.699219 231.675781 517.933594 231.371094 518.222656 C 215.457031 534.144531 207.878906 570.859375 224.714844 588.585938 C 225.101562 589.492188 225.820312 590.253906 226.957031 590.636719 C 235.089844 593.308594 241.375 599.910156 247.660156 605.449219 C 255.855469 612.652344 265.042969 618.855469 273.730469 625.460938 C 292.867188 640.042969 312.113281 654.578125 330.988281 669.492188 C 350.335938 684.78125 369.152344 700.761719 388.394531 716.210938 C 405.929688 730.3125 424.511719 743.1875 441.925781 757.394531 C 449.3125 763.4375 455.484375 767.90625 463.046875 767.472656 C 465.082031 767.726562 467.378906 767.414062 469.976562 766.25 C 470.566406 765.976562 471.042969 765.609375 471.375 765.1875 C 471.792969 764.992188 472.214844 764.808594 472.648438 764.578125 C 494.0625 753.394531 513.117188 738.484375 532.613281 724.324219 C 552.554688 709.84375 572.363281 695.140625 591.753906 679.949219 C 600.4375 673.160156 608.75 665.851562 617.785156 659.535156 C 624.855469 654.546875 632.054688 649.902344 638.203125 643.804688 C 639.9375 642.082031 639.175781 639.328125 637.277344 638.179688 C 633.871094 636.113281 630.53125 633.984375 627.003906 632.078125 C 627.246094 622.433594 631.066406 613.304688 635.507812 604.839844 C 635.527344 604.808594 635.523438 604.753906 635.546875 604.730469 C 641.796875 601.015625 646.964844 597.414062 650.402344 590.777344 C 651.148438 589.351562 650.90625 587.519531 649.699219 586.441406 C 633.945312 572.226562 615.726562 561.425781 598.097656 549.757812 " fill-opacity="1" fill-rule="nonzero"/></g></g></g><g clip-path="url(#6d31af0265)"><g clip-path="url(#22e4f2dda8)"><g clip-path="url(#7639183dd8)"><path fill="#ffd7b0" d="M 625.5625 608.917969 C 625.34375 609.347656 625.167969 609.832031 624.980469 610.28125 C 620.835938 612.957031 617.382812 615.273438 614.578125 617.195312 C 611.457031 619.144531 609.023438 620.578125 607.21875 621.792969 C 603.597656 624.199219 602.335938 625.40625 602.546875 625.875 C 602.75 626.316406 604.40625 625.914062 608.4375 624.015625 C 610.425781 623.09375 613.0625 621.824219 616.296875 620.023438 C 618.21875 618.84375 620.394531 617.472656 622.839844 615.9375 C 622.382812 617.25 621.988281 618.585938 621.609375 619.933594 C 616.472656 623.582031 612.179688 626.695312 608.574219 629.109375 C 604.554688 631.792969 601.375 633.769531 598.886719 635.207031 C 596.429688 636.660156 594.683594 637.59375 593.585938 638.273438 C 592.503906 638.949219 592.078125 639.398438 592.175781 639.625 C 592.246094 639.855469 592.851562 639.867188 594.125 639.554688 C 595.402344 639.28125 597.363281 638.691406 600.046875 637.476562 C 602.742188 636.3125 606.164062 634.484375 610.359375 631.890625 C 613.324219 630.074219 616.691406 627.785156 620.46875 625.148438 C 620.191406 626.730469 619.972656 628.320312 619.882812 629.929688 C 616.90625 631.75 614.296875 633.628906 612.039062 635.414062 C 610.71875 636.457031 609.460938 637.4375 608.234375 638.378906 C 607.046875 639.3125 605.878906 640.167969 604.734375 640.917969 C 600.203125 644.035156 596.753906 646.515625 594.035156 648.441406 C 588.675781 652.28125 586.820312 654.015625 587.097656 654.421875 C 587.390625 654.839844 589.738281 653.863281 595.429688 650.566406 C 598.265625 648.972656 601.964844 646.625 606.628906 643.636719 C 610.492188 641.28125 614.519531 637.746094 619.46875 634.449219 C 618.816406 637.164062 617.507812 639.589844 614.351562 641.5625 C 607.582031 645.828125 601.5625 651.796875 595.300781 656.765625 C 580.964844 668.097656 566.726562 679.273438 552.648438 690.894531 C 538.808594 702.285156 522.859375 711.964844 507.996094 721.945312 C 491.667969 732.925781 476.234375 745.066406 459.5625 755.546875 C 459.164062 754.589844 458.847656 753.539062 458.625 752.429688 C 460.027344 751.65625 461.40625 750.890625 462.609375 750.152344 C 464.355469 748.996094 465.964844 747.964844 467.378906 747.003906 C 470.222656 745.15625 472.332031 743.566406 473.984375 742.46875 C 477.300781 740.25 478.4375 739.097656 478.226562 738.671875 C 477.988281 738.210938 476.445312 738.5625 472.695312 740.28125 C 470.824219 741.125 468.542969 742.511719 465.59375 744.226562 C 464.152344 745.109375 462.550781 746.066406 460.78125 747.148438 C 459.890625 747.625 458.972656 748.152344 457.984375 748.6875 C 457.84375 747.289062 457.730469 745.898438 457.683594 744.664062 C 459.78125 743.179688 461.761719 741.730469 463.59375 740.433594 C 466.070312 738.527344 468.292969 736.808594 470.300781 735.25 C 474.351562 732.265625 477.386719 729.769531 479.820312 728.042969 C 484.703125 724.570312 486.410156 722.949219 486.15625 722.523438 C 485.894531 722.082031 483.757812 722.921875 478.40625 725.90625 C 475.757812 727.417969 472.53125 729.707031 468.335938 732.59375 C 466.285156 734.09375 464 735.75 461.515625 737.574219 C 460.273438 738.453125 458.980469 739.363281 457.621094 740.332031 C 457.667969 738.164062 457.882812 735.957031 458.238281 733.75 C 461.011719 732.085938 463.613281 730.519531 465.953125 729.042969 C 468.804688 727.136719 471.355469 725.386719 473.679688 723.820312 C 478.199219 720.679688 481.75 718.210938 484.464844 716.3125 C 489.898438 712.675781 491.84375 710.996094 491.613281 710.5625 C 491.359375 710.136719 488.984375 711.03125 483.121094 714.171875 C 480.164062 715.734375 476.53125 718.101562 471.832031 721.074219 C 469.511719 722.570312 466.929688 724.214844 464.0625 726.058594 C 462.550781 726.992188 460.914062 727.960938 459.21875 728.976562 C 459.921875 726.105469 460.878906 723.296875 462.019531 720.542969 C 470.984375 716.554688 477.605469 711.886719 482.96875 708.058594 C 488.527344 704.03125 492.730469 700.722656 495.925781 698.234375 C 502.292969 693.191406 504.683594 691.242188 504.394531 690.78125 C 504.152344 690.40625 501.222656 691.640625 494.421875 696.167969 C 491.027344 698.40625 486.660156 701.503906 481.046875 705.347656 C 476.503906 708.410156 471.121094 712.089844 464.449219 715.417969 C 466.289062 711.964844 468.410156 708.75 470.757812 705.917969 C 470.800781 705.875 470.8125 705.859375 470.820312 705.800781 C 500.5 687.28125 529.578125 667.894531 558.96875 648.988281 C 580.675781 635.015625 603.605469 622.601562 625.5625 608.917969 " fill-opacity="1" fill-rule="nonzero"/></g></g></g><g clip-path="url(#c360c898e4)"><g clip-path="url(#c6de3e365d)"><g clip-path="url(#00e4b1874d)"><path fill="#cb6ce6" d="M 296.519531 547.140625 C 297.210938 546.289062 289.125 538.71875 278.5 530.273438 C 267.832031 521.84375 258.640625 515.714844 257.957031 516.589844 C 257.261719 517.445312 265.347656 525.015625 275.988281 533.453125 C 286.644531 541.898438 295.835938 548.03125 296.519531 547.140625 Z M 313.441406 486.390625 C 318.136719 483.410156 320.851562 481.332031 320.5625 480.84375 C 320.277344 480.355469 317.042969 481.554688 312.125 483.835938 C 307.132812 486.023438 300.203125 489.066406 292.574219 492.75 C 290.71875 493.742188 288.910156 494.707031 287.171875 495.664062 C 286.316406 496.121094 285.46875 496.597656 284.625 497.050781 L 284 497.390625 C 283.574219 497.644531 283.546875 497.695312 283.289062 497.859375 C 282.921875 498.136719 282.53125 498.40625 282.164062 498.671875 C 279.089844 500.773438 276.5625 502.824219 274.410156 504.453125 C 273.363281 505.300781 272.382812 506.042969 271.5625 506.710938 C 270.660156 507.332031 269.910156 507.90625 269.304688 508.398438 C 268.074219 509.371094 267.464844 510.003906 267.609375 510.253906 C 267.738281 510.492188 268.605469 510.304688 270.066406 509.765625 C 270.78125 509.492188 271.675781 509.125 272.664062 508.6875 C 273.652344 508.164062 274.742188 507.558594 275.988281 506.859375 C 278.433594 505.464844 281.136719 503.628906 284.179688 501.789062 C 284.554688 501.550781 284.953125 501.300781 285.332031 501.0625 L 285.789062 500.769531 L 286.445312 500.445312 C 287.285156 500.027344 288.15625 499.582031 289.019531 499.152344 C 290.773438 498.246094 292.589844 497.308594 294.464844 496.335938 C 301.90625 492.722656 308.679688 489.253906 313.441406 486.390625 Z M 396.894531 622.226562 C 397.300781 621.90625 394.574219 618.097656 388.761719 613.578125 C 385.910156 611.300781 382.339844 608.835938 378.597656 606.015625 C 376.761719 604.570312 374.914062 603.167969 372.96875 601.359375 C 371.164062 599.777344 369.046875 597.714844 366.960938 595.949219 C 358.324219 588.824219 350.050781 583.367188 344.589844 578.757812 C 339.1875 574.335938 336.132812 570.835938 335.644531 571.304688 C 335.4375 571.492188 335.96875 572.507812 337.078125 574.203125 C 338.105469 575.9375 340.125 578.183594 342.6875 580.882812 C 347.832031 586.164062 355.992188 592.128906 364.351562 599.03125 C 366.417969 600.828125 368.421875 602.605469 370.363281 604.3125 C 372.222656 606.035156 374.4375 607.621094 376.425781 609.023438 C 380.433594 611.789062 384.109375 613.957031 387.113281 615.894531 C 393.179688 619.691406 396.445312 622.640625 396.894531 622.226562 Z M 448.078125 461.460938 C 448.292969 461.300781 447.539062 460.183594 445.949219 458.253906 C 444.351562 456.386719 441.59375 454.054688 438.03125 451.515625 C 436.316406 450.238281 434.144531 449.019531 432.3125 447.484375 C 430.292969 445.980469 428.140625 444.320312 425.871094 442.582031 C 423.578125 440.867188 421.195312 439.09375 418.699219 437.214844 C 417.457031 436.289062 416.195312 435.351562 414.921875 434.378906 C 413.589844 433.4375 412.050781 432.375 410 431.789062 C 407.898438 431.121094 405.816406 431.679688 404.007812 432.136719 C 403.25 432.453125 402.515625 432.742188 401.773438 433.023438 L 401.652344 433.085938 L 401.398438 433.175781 L 401.34375 433.222656 L 401.078125 433.359375 L 400.546875 433.644531 L 399.519531 434.21875 C 396.75 435.753906 394.058594 437.167969 391.621094 438.6875 C 386.75 441.789062 382.46875 444.664062 379.011719 447.203125 C 372.003906 452.210938 367.710938 455.410156 368.003906 455.921875 C 368.292969 456.367188 373.113281 454.03125 380.550781 449.621094 C 384.230469 447.351562 388.65625 444.773438 393.507812 441.882812 C 395.960938 440.46875 398.613281 439.195312 401.292969 437.742188 C 401.9375 437.421875 402.550781 437.085938 403.179688 436.769531 C 403.917969 436.476562 404.660156 436.199219 405.402344 435.917969 C 406.636719 435.65625 407.878906 435.28125 408.984375 435.691406 C 410.125 436.003906 411.347656 436.757812 412.59375 437.65625 C 413.90625 438.617188 415.167969 439.554688 416.4375 440.472656 C 418.949219 442.261719 421.398438 443.988281 423.738281 445.621094 C 426.074219 447.253906 428.292969 448.808594 430.402344 450.246094 C 432.570312 451.816406 434.636719 452.789062 436.480469 453.941406 C 440.148438 456.082031 443.023438 457.960938 444.890625 459.425781 C 446.734375 460.902344 447.855469 461.65625 448.078125 461.460938 Z M 505.523438 664.882812 C 511.492188 661.070312 515.066406 658.441406 514.777344 657.953125 C 514.503906 657.460938 510.441406 659.203125 504.109375 662.414062 C 500.925781 664.015625 497.199219 665.980469 493.074219 668.214844 C 490.789062 669.550781 488.867188 671.109375 486.84375 672.699219 C 484.851562 674.25 482.804688 675.859375 480.660156 677.277344 C 479.621094 677.96875 478.539062 678.601562 477.523438 679.035156 C 477.304688 679.097656 477.101562 679.160156 476.898438 679.234375 C 476.65625 679.308594 476.296875 679.375 475.996094 679.4375 C 475.640625 679.417969 475.140625 679.527344 474.699219 679.453125 C 472.816406 679.191406 470.785156 678.027344 468.996094 676.773438 C 465.402344 674.132812 462.292969 671.195312 459.488281 668.933594 C 456.710938 666.675781 454.238281 665.015625 452.253906 664.1875 C 451.75 664 451.3125 663.851562 450.921875 663.71875 C 450.546875 663.636719 450.21875 663.609375 449.953125 663.5625 C 449.410156 663.53125 449.101562 663.566406 449.070312 663.703125 C 449.023438 663.816406 449.246094 664.054688 449.683594 664.34375 C 449.890625 664.476562 450.191406 664.640625 450.503906 664.839844 C 450.804688 665.085938 451.15625 665.328125 451.53125 665.59375 C 453.039062 666.707031 455.128906 668.582031 457.582031 671.0625 C 460.105469 673.535156 462.9375 676.667969 466.757812 679.746094 C 468.753906 681.214844 470.996094 682.847656 474.203125 683.378906 C 477.847656 683.863281 480.445312 682.140625 482.882812 680.664062 C 487.589844 677.539062 491.367188 673.785156 494.917969 671.453125 C 498.949219 669.050781 502.542969 666.820312 505.523438 664.882812 Z M 500.898438 578.074219 C 500.925781 574.175781 499.292969 572.414062 495.398438 570.914062 C 485.605469 567.1875 477.628906 560.539062 469.085938 554.558594 C 464.152344 551.132812 459.207031 547.671875 454.28125 544.226562 C 452.578125 543.035156 436.636719 534.695312 443.632812 530.292969 C 452.101562 524.980469 459.644531 518.355469 468.273438 513.304688 C 469.738281 512.457031 469.449219 510.433594 468.125 509.601562 C 463.566406 506.734375 461.164062 501.355469 455.445312 500.671875 C 450.714844 500.09375 445.273438 505.988281 441.980469 508.5625 C 435.953125 513.25 423.222656 524.335938 416.023438 517.757812 C 409.441406 511.738281 401.265625 506.753906 393.703125 501.980469 C 393.101562 501.613281 392.136719 501.652344 391.53125 502.058594 C 386.089844 505.867188 381.425781 510.15625 375.476562 513.292969 C 374.339844 513.890625 374.09375 515.894531 375.183594 516.6875 C 383.453125 522.773438 392.195312 528.71875 400.214844 535.1875 C 394.539062 538.171875 389.355469 541.988281 383.980469 545.457031 C 379.992188 548.042969 371.105469 549.097656 368.144531 552.957031 C 362.371094 560.492188 372.859375 563.867188 378.441406 568.289062 C 379.199219 568.898438 380.175781 569.082031 381.039062 568.554688 C 391.152344 562.148438 409.5625 545.234375 422.320312 550.488281 C 434.410156 555.464844 445.996094 566.992188 456.820312 574.5625 C 464.710938 580.09375 472.605469 587.957031 481.875 591.058594 C 488.5 593.273438 496.617188 583.589844 500.351562 579.738281 C 500.855469 579.222656 500.996094 578.632812 500.898438 578.074219 Z M 530.941406 519.515625 C 531.578125 518.609375 521.066406 509.851562 507.484375 499.964844 C 493.941406 489.976562 482.425781 482.617188 481.769531 483.511719 C 481.117188 484.410156 491.570312 493.242188 505.125 503.222656 C 518.753906 513.136719 530.304688 520.460938 530.941406 519.515625 Z M 626.914062 587.597656 L 624.757812 586.105469 C 623.90625 585.511719 623.023438 584.894531 622.132812 584.265625 C 620.792969 583.300781 619.460938 582.679688 618.148438 581.898438 C 616.941406 581.183594 615.726562 580.5 614.550781 579.804688 C 613.390625 579.203125 612.28125 578.167969 611.167969 577.394531 L 610.34375 576.792969 L 609.726562 576.234375 C 609.226562 575.785156 608.765625 575.320312 608.3125 574.882812 C 604.621094 571.265625 601.320312 567.738281 598.179688 565.117188 C 595.039062 562.480469 592.109375 560.746094 589.894531 559.984375 C 587.597656 559.195312 586.390625 559.320312 586.296875 559.515625 C 586.164062 559.808594 587.460938 560.3125 589.214844 561.394531 C 591.046875 562.507812 593.484375 564.476562 596.238281 567.214844 C 598.992188 569.996094 601.980469 573.585938 605.664062 577.503906 C 606.132812 577.992188 606.605469 578.492188 607.125 578.964844 C 607.40625 579.257812 607.5 579.382812 607.980469 579.8125 L 608.785156 580.4375 C 609.917969 581.273438 610.855469 582.25 612.238281 582.992188 C 614.867188 584.707031 617.527344 586.0625 619.90625 587.640625 C 619.964844 587.691406 620.03125 587.726562 620.09375 587.75 C 611.957031 593.941406 604.257812 598.878906 598.613281 602.609375 C 592.417969 606.601562 588.648438 609.179688 588.921875 609.660156 C 589.152344 610.105469 593.375 608.386719 600.003906 604.988281 C 606.550781 601.519531 615.542969 596.371094 624.757812 589.257812 Z M 584.148438 548.8125 C 603.445312 562.355469 624.222656 573.9375 642.082031 589.382812 C 614.382812 608.855469 583.695312 624.570312 555.144531 642.890625 C 528.160156 660.21875 501.425781 677.972656 474.308594 695.089844 C 458.859375 678.121094 436.988281 666.996094 419.648438 652.066406 C 401.628906 636.542969 380.253906 625.433594 363.398438 608.820312 C 345.492188 591.164062 324.515625 579.207031 304.738281 563.796875 C 293.039062 554.667969 281.257812 545.652344 269.488281 536.617188 C 261.457031 530.441406 253.992188 522.65625 245.078125 517.769531 C 263.570312 498.648438 291.753906 490.308594 314.601562 477.769531 C 346.003906 460.511719 379 444.980469 409.285156 425.832031 C 415.03125 430.75 421.785156 433.765625 428.292969 437.722656 C 437.898438 443.5625 446.320312 452.152344 455.574219 458.683594 C 476.640625 473.539062 497.734375 488.304688 518.859375 503.085938 C 540.601562 518.339844 562.367188 533.570312 584.148438 548.8125 " fill-opacity="1" fill-rule="nonzero"/></g></g></g><g clip-path="url(#7d65d3abed)"><g clip-path="url(#4ef54fd234)"><g clip-path="url(#6abfa546ab)"><path fill="#cb6ce6" d="M 624.375 638.847656 C 626.167969 639.835938 627.917969 640.859375 629.667969 641.929688 C 623.847656 646.984375 617.296875 651.101562 610.972656 655.539062 C 602.957031 661.148438 595.59375 667.816406 587.9375 673.875 C 569.832031 688.179688 551.253906 701.851562 532.609375 715.449219 C 514.195312 728.878906 496.109375 742.980469 476.34375 754.382812 C 473.472656 756.03125 469.402344 758.683594 465.5 760.027344 C 464.101562 760.171875 462.949219 759.816406 462 759.082031 C 491.472656 740.683594 519.03125 719.121094 547.882812 699.71875 C 560.808594 691.050781 571.851562 679.703125 584.363281 670.40625 C 596.976562 661.03125 609.160156 648.136719 623.453125 641.503906 C 624.046875 641.242188 624.53125 640.300781 624.460938 639.648438 C 624.402344 639.359375 624.398438 639.109375 624.375 638.847656 " fill-opacity="1" fill-rule="nonzero"/></g></g></g><g clip-path="url(#41d8a30a70)"><g clip-path="url(#770c9900a2)"><g clip-path="url(#94772a21ad)"><path fill="#cb6ce6" d="M 234.496094 535.644531 C 236.609375 531.101562 238.339844 528.453125 237.890625 528.070312 C 237.53125 527.714844 234.914062 529.792969 232 534.238281 C 229.078125 538.648438 226.054688 545.410156 224.570312 553.429688 C 223.898438 557.421875 223.710938 561.34375 224 564.910156 C 224.449219 568.441406 225.105469 571.644531 226.351562 574.097656 C 228.75 579.222656 231.5625 580.949219 231.878906 580.703125 C 232.453125 580.332031 230.328125 577.601562 229.023438 573.082031 C 228.242188 570.769531 227.914062 567.871094 227.703125 564.660156 C 227.652344 561.429688 227.914062 557.851562 228.554688 554.128906 C 229.902344 546.671875 232.359375 540.164062 234.496094 535.644531 Z M 273.039062 566.546875 C 275.050781 562.597656 276.4375 560.09375 275.945312 559.722656 C 275.5625 559.417969 273.359375 561.300781 270.574219 565.09375 C 269.953125 566.105469 269.257812 567.183594 268.507812 568.359375 C 267.746094 569.542969 267.300781 571.035156 266.640625 572.507812 C 266.34375 573.238281 266.015625 574.011719 265.707031 574.804688 C 265.539062 575.582031 265.328125 576.371094 265.144531 577.15625 C 264.953125 577.957031 264.777344 578.765625 264.578125 579.59375 L 264.3125 580.847656 L 264.238281 581.195312 L 264.214844 581.355469 L 264.1875 581.683594 L 264.105469 582.339844 C 263.226562 589.308594 263.257812 595.863281 264.191406 600.539062 C 265.148438 605.425781 267.015625 607.636719 267.449219 607.492188 C 268.03125 607.289062 267.109375 604.417969 267.035156 600.183594 C 266.859375 595.785156 267.257812 589.648438 268.121094 582.808594 L 268.242188 581.722656 L 268.496094 580.472656 C 268.664062 579.636719 268.847656 578.8125 268.996094 578.011719 C 269.164062 577.21875 269.3125 576.417969 269.484375 575.636719 C 269.726562 574.949219 269.957031 574.277344 270.199219 573.601562 C 270.679688 572.3125 270.917969 570.980469 271.539062 569.828125 C 272.074219 568.644531 272.574219 567.554688 273.039062 566.546875 Z M 317.609375 597.035156 C 320.304688 592.976562 322.171875 590.496094 321.746094 590.0625 C 321.367188 589.730469 318.785156 591.515625 315.328125 595.300781 C 311.972656 599.070312 307.738281 605.160156 305.992188 613.0625 C 304.273438 620.957031 305.480469 628.25 306.765625 633.109375 C 308.167969 638.089844 309.617188 640.773438 310.148438 640.671875 C 310.710938 640.5 310.1875 637.328125 309.574219 632.558594 C 309.015625 627.730469 308.386719 621.003906 309.96875 613.949219 C 311.5 606.882812 314.933594 601.101562 317.609375 597.035156 Z M 359.160156 631.652344 C 362 628.121094 364.277344 626.261719 363.917969 625.710938 C 363.671875 625.308594 360.738281 626.347656 357.054688 629.710938 C 355.242188 631.40625 353.308594 633.710938 351.691406 636.605469 C 350.089844 639.507812 348.769531 642.929688 347.964844 646.613281 C 346.425781 654.035156 346.878906 660.828125 347.527344 665.585938 C 348.230469 670.371094 349.144531 673.175781 349.675781 673.125 C 350.257812 673.0625 350.332031 670.058594 350.367188 665.402344 C 350.46875 660.722656 350.496094 654.265625 351.917969 647.480469 C 352.644531 644.085938 353.726562 641 354.980469 638.328125 C 356.242188 635.652344 357.75 633.421875 359.160156 631.652344 Z M 402.769531 665.902344 C 405.070312 661.792969 407.070312 659.566406 406.648438 659.089844 C 406.363281 658.703125 403.535156 660.269531 400.390625 664.320312 C 398.757812 666.285156 397.28125 668.941406 395.84375 671.964844 C 394.511719 675.066406 393.375 678.585938 392.621094 682.394531 C 391.925781 686.203125 391.707031 689.894531 391.828125 693.257812 C 392.078125 696.597656 392.511719 699.617188 393.34375 702.050781 C 394.90625 707.054688 396.972656 709.355469 397.382812 709.148438 C 397.988281 708.925781 396.773438 705.960938 396.128906 701.410156 C 395.695312 699.089844 395.574219 696.273438 395.550781 693.183594 C 395.636719 690.078125 395.921875 686.664062 396.597656 683.144531 C 397.277344 679.605469 398.234375 676.324219 399.261719 673.382812 C 400.425781 670.511719 401.546875 667.921875 402.769531 665.902344 Z M 456.722656 705.792969 C 458.953125 701.972656 461.554688 700.488281 461.230469 699.914062 C 461.109375 699.699219 460.304688 699.773438 459.039062 700.351562 C 457.730469 700.925781 456.039062 702.179688 454.40625 704.140625 C 452.777344 706.113281 451.335938 708.800781 450.207031 711.832031 C 449.082031 714.871094 448.226562 718.304688 447.269531 721.671875 C 445.222656 728.617188 443.929688 735.277344 443.96875 740.191406 C 443.953125 745.289062 445.253906 747.976562 445.71875 747.9375 C 446.355469 747.871094 446.066406 744.78125 446.804688 740.414062 C 447.476562 735.859375 449.101562 729.699219 451.160156 722.796875 C 452.152344 719.222656 452.835938 715.921875 453.746094 713.042969 C 454.601562 710.171875 455.625 707.675781 456.722656 705.792969 Z M 237.195312 523.070312 C 237.195312 523.070312 237.175781 523.050781 237.140625 523.03125 C 237.761719 523.097656 238.414062 523.027344 238.988281 522.851562 C 239.132812 522.867188 239.285156 522.863281 239.460938 522.835938 C 239.613281 522.972656 239.800781 523.085938 240.015625 523.203125 C 250.203125 528.222656 259.117188 537.667969 268.113281 544.589844 C 278.714844 552.714844 289.277344 560.882812 299.847656 569.046875 C 319.558594 584.285156 340.855469 596.4375 358.511719 614.085938 C 375.351562 630.886719 396.734375 641.742188 414.769531 657.316406 C 431.640625 671.855469 452.859375 682.8125 468.171875 699 C 467.742188 699.253906 467.3125 699.535156 466.863281 699.8125 C 466.574219 700.011719 466.335938 700.195312 466.121094 700.414062 C 465.917969 700.574219 465.714844 700.789062 465.511719 701.03125 C 454.972656 713.726562 449.261719 731.34375 450.738281 747.851562 C 451.011719 750.890625 451.675781 754.203125 452.792969 757.210938 C 450.636719 755.535156 448.605469 753.617188 446.816406 752.140625 C 438.664062 745.414062 429.84375 739.449219 421.445312 733.023438 C 386.429688 706.402344 353.363281 677.375 318.363281 650.722656 C 300.238281 636.882812 282.203125 622.890625 264.007812 609.117188 C 253.332031 601.066406 243.253906 589.351562 230.597656 584.390625 C 215.445312 569.9375 223.273438 536.699219 236.492188 523.285156 C 236.683594 523.226562 236.886719 523.164062 237.09375 523.101562 C 236.683594 523.226562 237.40625 523.164062 237.195312 523.070312 " fill-opacity="1" fill-rule="nonzero"/></g></g></g><g clip-path="url(#a61fd43da7)"><g clip-path="url(#49418e2d3c)"><g clip-path="url(#85df4899d2)"><path fill="#ffffff" d="M 483.207031 569.761719 C 485.242188 571.175781 494.707031 575.070312 496.34375 577.625 C 494.660156 579.183594 491.972656 581.351562 490.4375 582.710938 C 482.417969 589.84375 477.402344 584.386719 472.128906 580.152344 C 465.597656 574.914062 458.355469 570.417969 451.515625 565.636719 C 440.980469 558.285156 427.953125 543.933594 414.105469 544.902344 C 406.070312 545.476562 383.429688 566.785156 378.367188 562.753906 C 376.363281 561.160156 374.089844 558.992188 371.902344 557.675781 C 370.410156 556.808594 382.0625 551.621094 382.421875 551.425781 C 390.507812 547.578125 397.125 541.171875 405.34375 537.449219 C 406.597656 536.875 406.632812 534.863281 405.652344 534.027344 C 397.738281 527.382812 389.113281 521.460938 380.6875 515.40625 C 383.144531 514.089844 385.523438 512.703125 387.609375 510.769531 C 394.144531 504.699219 396.632812 509.199219 403.019531 513.628906 C 407.234375 516.53125 415.101562 525.886719 420.683594 525.746094 C 427.898438 525.601562 436.695312 517.195312 442.394531 513.5625 C 446.359375 510.980469 453.351562 502.351562 458.9375 507.050781 C 460.542969 508.386719 461.878906 509.859375 463.371094 511.230469 C 455.085938 516.175781 446.132812 522.160156 439.003906 528.203125 C 436.195312 530.574219 434.019531 534.6875 437.398438 537.867188 C 445.871094 545.839844 457.492188 551.6875 467.0625 558.375 C 472.453125 562.152344 477.800781 565.984375 483.207031 569.761719 " fill-opacity="1" fill-rule="nonzero"/></g></g></g><g clip-path="url(#d4ddce58b2)"><g clip-path="url(#88cbe5c1f5)"><g clip-path="url(#4572d3cdbd)"><path fill="#000000" d="M 629.667969 641.929688 C 627.917969 640.859375 626.167969 639.835938 624.375 638.847656 C 624.398438 639.109375 624.402344 639.359375 624.460938 639.648438 C 624.53125 640.300781 624.046875 641.242188 623.453125 641.503906 C 609.160156 648.136719 596.976562 661.03125 584.363281 670.40625 C 571.851562 679.703125 560.808594 691.050781 547.882812 699.71875 C 519.03125 719.121094 491.472656 740.683594 462 759.082031 C 462.949219 759.816406 464.101562 760.171875 465.5 760.027344 C 469.402344 758.683594 473.472656 756.03125 476.34375 754.382812 C 496.109375 742.980469 514.195312 728.878906 532.609375 715.449219 C 551.253906 701.851562 569.832031 688.179688 587.9375 673.875 C 595.59375 667.816406 602.957031 661.148438 610.972656 655.539062 C 617.296875 651.101562 623.847656 646.984375 629.667969 641.929688 Z M 624.980469 610.28125 C 625.167969 609.832031 625.34375 609.347656 625.5625 608.917969 C 603.605469 622.601562 580.675781 635.015625 558.96875 648.988281 C 529.578125 667.894531 500.5 687.28125 470.820312 705.800781 C 470.8125 705.859375 470.800781 705.875 470.757812 705.917969 C 468.410156 708.75 466.289062 711.964844 464.449219 715.417969 C 471.121094 712.089844 476.503906 708.410156 481.046875 705.347656 C 486.660156 701.503906 491.027344 698.40625 494.421875 696.167969 C 501.222656 691.640625 504.152344 690.40625 504.394531 690.78125 C 504.683594 691.242188 502.292969 693.191406 495.925781 698.234375 C 492.730469 700.722656 488.527344 704.03125 482.96875 708.058594 C 477.605469 711.886719 470.984375 716.554688 462.019531 720.542969 C 460.878906 723.296875 459.921875 726.105469 459.21875 728.976562 C 460.914062 727.960938 462.550781 726.992188 464.0625 726.058594 C 466.929688 724.214844 469.511719 722.570312 471.832031 721.074219 C 476.53125 718.101562 480.164062 715.734375 483.121094 714.171875 C 488.984375 711.03125 491.359375 710.136719 491.613281 710.5625 C 491.84375 710.996094 489.898438 712.675781 484.464844 716.3125 C 481.75 718.210938 478.199219 720.679688 473.679688 723.820312 C 471.355469 725.386719 468.804688 727.136719 465.953125 729.042969 C 463.613281 730.519531 461.011719 732.085938 458.238281 733.75 C 457.882812 735.957031 457.667969 738.164062 457.621094 740.332031 C 458.980469 739.363281 460.273438 738.453125 461.515625 737.574219 C 464 735.75 466.285156 734.09375 468.335938 732.59375 C 472.53125 729.707031 475.757812 727.417969 478.40625 725.90625 C 483.757812 722.921875 485.894531 722.082031 486.15625 722.523438 C 486.410156 722.949219 484.703125 724.570312 479.820312 728.042969 C 477.386719 729.769531 474.351562 732.265625 470.300781 735.25 C 468.292969 736.808594 466.070312 738.527344 463.59375 740.433594 C 461.761719 741.730469 459.78125 743.179688 457.683594 744.664062 C 457.730469 745.898438 457.84375 747.289062 457.984375 748.6875 C 458.972656 748.152344 459.890625 747.625 460.78125 747.148438 C 462.550781 746.066406 464.152344 745.109375 465.59375 744.226562 C 468.542969 742.511719 470.824219 741.125 472.695312 740.28125 C 476.445312 738.5625 477.988281 738.210938 478.226562 738.671875 C 478.4375 739.097656 477.300781 740.25 473.984375 742.46875 C 472.332031 743.566406 470.222656 745.15625 467.378906 747.003906 C 465.964844 747.964844 464.355469 748.996094 462.609375 750.152344 C 461.40625 750.890625 460.027344 751.65625 458.625 752.429688 C 458.847656 753.539062 459.164062 754.589844 459.5625 755.546875 C 476.234375 745.066406 491.667969 732.925781 507.996094 721.945312 C 522.859375 711.964844 538.808594 702.285156 552.648438 690.894531 C 566.726562 679.273438 580.964844 668.097656 595.300781 656.765625 C 601.5625 651.796875 607.582031 645.828125 614.351562 641.5625 C 617.507812 639.589844 618.816406 637.164062 619.46875 634.449219 C 614.519531 637.746094 610.492188 641.28125 606.628906 643.636719 C 601.964844 646.625 598.265625 648.972656 595.429688 650.566406 C 589.738281 653.863281 587.390625 654.839844 587.097656 654.421875 C 586.820312 654.015625 588.675781 652.28125 594.035156 648.441406 C 596.753906 646.515625 600.203125 644.035156 604.734375 640.917969 C 605.878906 640.167969 607.046875 639.3125 608.234375 638.378906 C 609.460938 637.4375 610.71875 636.457031 612.039062 635.414062 C 614.296875 633.628906 616.90625 631.75 619.882812 629.929688 C 619.972656 628.320312 620.191406 626.730469 620.46875 625.148438 C 616.691406 627.785156 613.324219 630.074219 610.359375 631.890625 C 606.164062 634.484375 602.742188 636.3125 600.046875 637.476562 C 597.363281 638.691406 595.402344 639.28125 594.125 639.554688 C 592.851562 639.867188 592.246094 639.855469 592.175781 639.625 C 592.078125 639.398438 592.503906 638.949219 593.585938 638.273438 C 594.683594 637.59375 596.429688 636.660156 598.886719 635.207031 C 601.375 633.769531 604.554688 631.792969 608.574219 629.109375 C 612.179688 626.695312 616.472656 623.582031 621.609375 619.933594 C 621.988281 618.585938 622.382812 617.25 622.839844 615.9375 C 620.394531 617.472656 618.21875 618.84375 616.296875 620.023438 C 613.0625 621.824219 610.425781 623.09375 608.4375 624.015625 C 604.40625 625.914062 602.75 626.316406 602.546875 625.875 C 602.335938 625.40625 603.597656 624.199219 607.21875 621.792969 C 609.023438 620.578125 611.457031 619.144531 614.578125 617.195312 C 617.382812 615.273438 620.835938 612.957031 624.980469 610.28125 Z M 642.082031 589.382812 C 624.222656 573.9375 603.445312 562.355469 584.148438 548.8125 C 562.367188 533.570312 540.601562 518.339844 518.859375 503.085938 C 497.734375 488.304688 476.640625 473.539062 455.574219 458.683594 C 446.320312 452.152344 437.898438 443.5625 428.292969 437.722656 C 421.785156 433.765625 415.03125 430.75 409.285156 425.832031 C 379 444.980469 346.003906 460.511719 314.601562 477.769531 C 291.753906 490.308594 263.570312 498.648438 245.078125 517.769531 C 253.992188 522.65625 261.457031 530.441406 269.488281 536.617188 C 281.257812 545.652344 293.039062 554.667969 304.738281 563.796875 C 324.515625 579.207031 345.492188 591.164062 363.398438 608.820312 C 380.253906 625.433594 401.628906 636.542969 419.648438 652.066406 C 436.988281 666.996094 458.859375 678.121094 474.308594 695.089844 C 501.425781 677.972656 528.160156 660.21875 555.144531 642.890625 C 583.695312 624.570312 614.382812 608.855469 642.082031 589.382812 Z M 649.699219 586.441406 C 650.90625 587.519531 651.148438 589.351562 650.402344 590.777344 C 646.964844 597.414062 641.796875 601.015625 635.546875 604.730469 C 635.523438 604.753906 635.527344 604.808594 635.507812 604.839844 C 631.066406 613.304688 627.246094 622.433594 627.003906 632.078125 C 630.53125 633.984375 633.871094 636.113281 637.277344 638.179688 C 639.175781 639.328125 639.9375 642.082031 638.203125 643.804688 C 632.054688 649.902344 624.855469 654.546875 617.785156 659.535156 C 608.75 665.851562 600.4375 673.160156 591.753906 679.949219 C 572.363281 695.140625 552.554688 709.84375 532.613281 724.324219 C 513.117188 738.484375 494.0625 753.394531 472.648438 764.578125 C 472.214844 764.808594 471.792969 764.992188 471.375 765.1875 C 471.042969 765.609375 470.566406 765.976562 469.976562 766.25 C 467.378906 767.414062 465.082031 767.726562 463.046875 767.472656 C 455.484375 767.90625 449.3125 763.4375 441.925781 757.394531 C 424.511719 743.1875 405.929688 730.3125 388.394531 716.210938 C 369.152344 700.761719 350.335938 684.78125 331 669.488281 C 312.113281 654.578125 292.867188 640.042969 273.730469 625.460938 C 265.042969 618.855469 255.855469 612.652344 247.660156 605.449219 C 241.375 599.910156 235.089844 593.308594 226.957031 590.636719 C 225.820312 590.253906 225.101562 589.492188 224.714844 588.585938 C 207.878906 570.859375 215.457031 534.144531 231.371094 518.222656 C 231.675781 517.933594 232.039062 517.699219 232.378906 517.527344 C 232.773438 517.070312 233.292969 516.71875 234 516.503906 C 235.039062 516.191406 235.996094 516.03125 237.015625 515.972656 C 255.058594 494.957031 283.167969 486.835938 306.75 473.894531 C 339.683594 455.78125 374.355469 439.507812 406.078125 419.367188 C 406.5625 419.082031 407.0625 418.875 407.515625 418.808594 C 408.765625 417.660156 410.679688 417.28125 412.230469 418.8125 C 420.007812 426.476562 430.835938 429.960938 439.207031 436.996094 C 449.039062 445.257812 459.375 452.640625 469.878906 460.015625 C 491.148438 474.992188 512.453125 489.914062 533.765625 504.847656 C 555.175781 519.824219 576.296875 535.378906 598.097656 549.757812 C 615.726562 561.425781 633.945312 572.226562 649.699219 586.441406 Z M 237.140625 523.03125 C 237.175781 523.050781 237.195312 523.070312 237.195312 523.070312 C 237.15625 523.082031 237.132812 523.089844 237.09375 523.101562 C 236.886719 523.164062 236.683594 523.226562 236.492188 523.285156 C 223.273438 536.699219 215.445312 569.9375 230.597656 584.390625 C 243.253906 589.351562 253.332031 601.066406 264.007812 609.117188 C 282.203125 622.890625 300.238281 636.882812 318.363281 650.722656 C 353.363281 677.375 386.429688 706.402344 421.445312 733.023438 C 429.84375 739.449219 438.664062 745.414062 446.816406 752.140625 C 448.605469 753.617188 450.636719 755.535156 452.792969 757.210938 C 451.675781 754.203125 451.011719 750.890625 450.738281 747.851562 C 449.261719 731.34375 454.972656 713.726562 465.511719 701.03125 C 465.714844 700.789062 465.917969 700.574219 466.121094 700.414062 C 466.335938 700.195312 466.574219 700.011719 466.863281 699.8125 C 467.3125 699.535156 467.742188 699.253906 468.171875 699 C 452.859375 682.8125 431.640625 671.855469 414.769531 657.316406 C 396.734375 641.742188 375.351562 630.886719 358.511719 614.085938 C 340.855469 596.4375 319.558594 584.285156 299.847656 569.046875 C 289.277344 560.882812 278.714844 552.714844 268.113281 544.589844 C 259.117188 537.667969 250.203125 528.222656 240.015625 523.203125 C 239.800781 523.085938 239.613281 522.972656 239.460938 522.835938 C 239.285156 522.863281 239.132812 522.867188 238.988281 522.851562 C 238.414062 523.027344 237.761719 523.097656 237.140625 523.03125 " fill-opacity="1" fill-rule="nonzero"/></g></g></g><g clip-path="url(#c1ca7ed016)"><g clip-path="url(#3f44b54c8f)"><g clip-path="url(#b7bc23b19b)"><path fill="#000000" d="M 624.757812 586.105469 L 626.914062 587.597656 L 624.757812 589.257812 C 615.542969 596.371094 606.550781 601.519531 600.003906 604.988281 C 593.375 608.386719 589.152344 610.105469 588.921875 609.660156 C 588.648438 609.179688 592.417969 606.601562 598.613281 602.609375 C 604.257812 598.878906 611.957031 593.941406 620.09375 587.75 C 620.03125 587.726562 619.964844 587.691406 619.90625 587.640625 C 617.527344 586.0625 614.867188 584.707031 612.238281 582.992188 C 610.855469 582.25 609.917969 581.273438 608.785156 580.4375 L 607.980469 579.8125 C 607.5 579.382812 607.40625 579.257812 607.125 578.964844 C 606.605469 578.492188 606.132812 577.992188 605.664062 577.503906 C 601.980469 573.585938 598.992188 569.996094 596.238281 567.214844 C 593.484375 564.476562 591.046875 562.507812 589.214844 561.394531 C 587.460938 560.3125 586.164062 559.808594 586.296875 559.515625 C 586.390625 559.320312 587.597656 559.195312 589.894531 559.984375 C 592.109375 560.746094 595.039062 562.480469 598.179688 565.117188 C 601.320312 567.738281 604.621094 571.265625 608.3125 574.882812 C 608.765625 575.320312 609.226562 575.785156 609.726562 576.234375 L 610.34375 576.792969 L 611.167969 577.394531 C 612.28125 578.167969 613.390625 579.203125 614.550781 579.804688 C 615.726562 580.5 616.941406 581.183594 618.148438 581.898438 C 619.460938 582.679688 620.792969 583.300781 622.132812 584.265625 C 623.023438 584.894531 623.90625 585.511719 624.757812 586.105469 " fill-opacity="1" fill-rule="nonzero"/></g></g></g><g clip-path="url(#679d1decb3)"><g clip-path="url(#a33c975285)"><g clip-path="url(#f90086aa8b)"><path fill="#000000" d="M 507.484375 499.964844 C 521.066406 509.851562 531.578125 518.609375 530.941406 519.515625 C 530.304688 520.460938 518.753906 513.136719 505.125 503.222656 C 491.570312 493.242188 481.117188 484.410156 481.769531 483.511719 C 482.425781 482.617188 493.941406 489.976562 507.484375 499.964844 " fill-opacity="1" fill-rule="nonzero"/></g></g></g><g clip-path="url(#d89e635f60)"><g clip-path="url(#edbae6fea6)"><g clip-path="url(#604d8bd9cb)"><path fill="#000000" d="M 496.34375 577.625 C 494.707031 575.070312 485.242188 571.175781 483.207031 569.761719 C 477.800781 565.984375 472.453125 562.152344 467.0625 558.375 C 457.492188 551.6875 445.871094 545.839844 437.398438 537.867188 C 434.019531 534.6875 436.195312 530.574219 439.003906 528.203125 C 446.132812 522.160156 455.085938 516.175781 463.371094 511.230469 C 461.878906 509.859375 460.542969 508.386719 458.9375 507.050781 C 453.351562 502.351562 446.359375 510.980469 442.394531 513.5625 C 436.695312 517.195312 427.898438 525.601562 420.683594 525.746094 C 415.101562 525.886719 407.234375 516.53125 403.019531 513.628906 C 396.632812 509.199219 394.144531 504.699219 387.609375 510.769531 C 385.523438 512.703125 383.144531 514.089844 380.6875 515.40625 C 389.113281 521.460938 397.738281 527.382812 405.652344 534.027344 C 406.632812 534.863281 406.597656 536.875 405.34375 537.449219 C 397.125 541.171875 390.507812 547.578125 382.421875 551.425781 C 382.0625 551.621094 370.410156 556.808594 371.902344 557.675781 C 374.089844 558.992188 376.363281 561.160156 378.367188 562.753906 C 383.429688 566.785156 406.070312 545.476562 414.105469 544.902344 C 427.953125 543.933594 440.980469 558.285156 451.515625 565.636719 C 458.355469 570.417969 465.597656 574.914062 472.128906 580.152344 C 477.402344 584.386719 482.417969 589.84375 490.4375 582.710938 C 491.972656 581.351562 494.660156 579.183594 496.34375 577.625 Z M 495.398438 570.914062 C 499.292969 572.414062 500.925781 574.175781 500.898438 578.074219 C 500.996094 578.632812 500.855469 579.222656 500.351562 579.738281 C 496.617188 583.589844 488.5 593.273438 481.875 591.058594 C 472.605469 587.957031 464.710938 580.09375 456.820312 574.5625 C 445.996094 566.992188 434.410156 555.464844 422.320312 550.488281 C 409.5625 545.234375 391.152344 562.148438 381.039062 568.554688 C 380.175781 569.082031 379.199219 568.898438 378.441406 568.289062 C 372.859375 563.867188 362.371094 560.492188 368.144531 552.957031 C 371.105469 549.097656 379.992188 548.042969 383.980469 545.457031 C 389.355469 541.988281 394.539062 538.171875 400.214844 535.1875 C 392.195312 528.71875 383.453125 522.773438 375.183594 516.6875 C 374.09375 515.894531 374.339844 513.890625 375.476562 513.292969 C 381.425781 510.15625 386.089844 505.867188 391.53125 502.058594 C 392.136719 501.652344 393.101562 501.613281 393.703125 501.980469 C 401.265625 506.753906 409.441406 511.738281 416.023438 517.757812 C 423.222656 524.335938 435.953125 513.25 441.980469 508.5625 C 445.273438 505.988281 450.714844 500.09375 455.445312 500.671875 C 461.164062 501.355469 463.566406 506.734375 468.125 509.601562 C 469.449219 510.433594 469.738281 512.457031 468.273438 513.304688 C 459.644531 518.355469 452.101562 524.980469 443.632812 530.292969 C 436.636719 534.695312 452.578125 543.035156 454.28125 544.226562 C 459.207031 547.671875 464.152344 551.132812 469.085938 554.558594 C 477.628906 560.539062 485.605469 567.1875 495.398438 570.914062 " fill-opacity="1" fill-rule="nonzero"/></g></g></g><g clip-path="url(#e310102507)"><g clip-path="url(#09369cb54e)"><g clip-path="url(#61f6d3bf38)"><path fill="#000000" d="M 514.777344 657.953125 C 515.066406 658.441406 511.492188 661.070312 505.523438 664.882812 C 502.542969 666.820312 498.949219 669.050781 494.917969 671.453125 C 491.367188 673.785156 487.589844 677.539062 482.882812 680.664062 C 480.445312 682.140625 477.847656 683.863281 474.203125 683.378906 C 470.996094 682.847656 468.753906 681.214844 466.757812 679.746094 C 462.9375 676.667969 460.105469 673.535156 457.582031 671.0625 C 455.128906 668.582031 453.039062 666.707031 451.53125 665.59375 C 451.15625 665.328125 450.804688 665.085938 450.503906 664.839844 C 450.191406 664.640625 449.890625 664.476562 449.683594 664.34375 C 449.246094 664.054688 449.023438 663.816406 449.070312 663.703125 C 449.101562 663.566406 449.410156 663.53125 449.953125 663.5625 C 450.21875 663.609375 450.546875 663.636719 450.921875 663.71875 C 451.3125 663.851562 451.75 664 452.253906 664.1875 C 454.238281 665.015625 456.710938 666.675781 459.488281 668.933594 C 462.292969 671.195312 465.402344 674.132812 468.996094 676.773438 C 470.785156 678.027344 472.816406 679.191406 474.699219 679.453125 C 475.140625 679.527344 475.640625 679.417969 475.996094 679.4375 C 476.296875 679.375 476.65625 679.308594 476.898438 679.234375 C 477.101562 679.160156 477.304688 679.097656 477.523438 679.035156 C 478.539062 678.601562 479.621094 677.96875 480.660156 677.277344 C 482.804688 675.859375 484.851562 674.25 486.84375 672.699219 C 488.867188 671.109375 490.789062 669.550781 493.074219 668.214844 C 497.199219 665.980469 500.925781 664.015625 504.109375 662.414062 C 510.441406 659.203125 514.503906 657.460938 514.777344 657.953125 " fill-opacity="1" fill-rule="nonzero"/></g></g></g><g clip-path="url(#20acb62f58)"><g clip-path="url(#4d3cce3a32)"><g clip-path="url(#cb7765d8b0)"><path fill="#000000" d="M 445.949219 458.253906 C 447.539062 460.183594 448.292969 461.300781 448.078125 461.460938 C 447.855469 461.65625 446.734375 460.902344 444.890625 459.425781 C 443.023438 457.960938 440.148438 456.082031 436.480469 453.941406 C 434.636719 452.789062 432.570312 451.816406 430.402344 450.246094 C 428.292969 448.808594 426.074219 447.253906 423.738281 445.621094 C 421.398438 443.988281 418.949219 442.261719 416.4375 440.472656 C 415.167969 439.554688 413.90625 438.617188 412.59375 437.65625 C 411.347656 436.757812 410.125 436.003906 408.984375 435.691406 C 407.878906 435.28125 406.636719 435.65625 405.402344 435.917969 C 404.660156 436.199219 403.917969 436.476562 403.179688 436.769531 C 402.550781 437.085938 401.9375 437.421875 401.292969 437.742188 C 398.613281 439.195312 395.960938 440.46875 393.507812 441.882812 C 388.65625 444.773438 384.230469 447.351562 380.550781 449.621094 C 373.113281 454.03125 368.292969 456.367188 368.003906 455.921875 C 367.710938 455.410156 372.003906 452.210938 379.011719 447.203125 C 382.46875 444.664062 386.75 441.789062 391.621094 438.6875 C 394.058594 437.167969 396.75 435.753906 399.519531 434.21875 L 400.546875 433.644531 L 401.078125 433.359375 L 401.34375 433.222656 L 401.398438 433.175781 L 401.652344 433.085938 L 401.773438 433.023438 C 402.515625 432.742188 403.25 432.453125 404.007812 432.136719 C 405.816406 431.679688 407.898438 431.121094 410 431.789062 C 412.050781 432.375 413.589844 433.4375 414.921875 434.378906 C 416.195312 435.351562 417.457031 436.289062 418.699219 437.214844 C 421.195312 439.09375 423.578125 440.867188 425.871094 442.582031 C 428.140625 444.320312 430.292969 445.980469 432.3125 447.484375 C 434.144531 449.019531 436.316406 450.238281 438.03125 451.515625 C 441.59375 454.054688 444.351562 456.386719 445.949219 458.253906 " fill-opacity="1" fill-rule="nonzero"/></g></g></g><g clip-path="url(#52f497a779)"><g clip-path="url(#622fa1e964)"><g clip-path="url(#c2924dbe89)"><path fill="#000000" d="M 461.230469 699.914062 C 461.554688 700.488281 458.953125 701.972656 456.722656 705.792969 C 455.625 707.675781 454.601562 710.171875 453.746094 713.042969 C 452.835938 715.921875 452.152344 719.222656 451.160156 722.796875 C 449.101562 729.699219 447.476562 735.859375 446.804688 740.414062 C 446.066406 744.78125 446.355469 747.871094 445.71875 747.9375 C 445.253906 747.976562 443.953125 745.289062 443.96875 740.191406 C 443.929688 735.277344 445.222656 728.617188 447.269531 721.671875 C 448.226562 718.304688 449.082031 714.871094 450.207031 711.832031 C 451.335938 708.800781 452.777344 706.113281 454.40625 704.140625 C 456.039062 702.179688 457.730469 700.925781 459.039062 700.351562 C 460.304688 699.773438 461.109375 699.699219 461.230469 699.914062 " fill-opacity="1" fill-rule="nonzero"/></g></g></g><g clip-path="url(#2470681665)"><g clip-path="url(#08e9b7f6a1)"><g clip-path="url(#8001bd3e8d)"><path fill="#000000" d="M 388.761719 613.578125 C 394.574219 618.097656 397.300781 621.90625 396.894531 622.226562 C 396.445312 622.640625 393.179688 619.691406 387.113281 615.894531 C 384.109375 613.957031 380.433594 611.789062 376.425781 609.023438 C 374.4375 607.621094 372.222656 606.035156 370.363281 604.3125 C 368.421875 602.605469 366.417969 600.828125 364.351562 599.03125 C 355.992188 592.128906 347.832031 586.164062 342.6875 580.882812 C 340.125 578.183594 338.105469 575.9375 337.078125 574.203125 C 335.96875 572.507812 335.4375 571.492188 335.644531 571.304688 C 336.132812 570.835938 339.1875 574.335938 344.589844 578.757812 C 350.050781 583.367188 358.324219 588.824219 366.960938 595.949219 C 369.046875 597.714844 371.164062 599.777344 372.96875 601.359375 C 374.914062 603.167969 376.761719 604.570312 378.597656 606.015625 C 382.339844 608.835938 385.910156 611.300781 388.761719 613.578125 " fill-opacity="1" fill-rule="nonzero"/></g></g></g><g clip-path="url(#a53702b220)"><g clip-path="url(#6548a3a1fa)"><g clip-path="url(#1dd6aaf785)"><path fill="#000000" d="M 406.648438 659.089844 C 407.070312 659.566406 405.070312 661.792969 402.769531 665.902344 C 401.546875 667.921875 400.425781 670.511719 399.261719 673.382812 C 398.234375 676.324219 397.277344 679.605469 396.597656 683.144531 C 395.921875 686.664062 395.636719 690.078125 395.550781 693.183594 C 395.574219 696.273438 395.695312 699.089844 396.128906 701.410156 C 396.773438 705.960938 397.988281 708.925781 397.382812 709.148438 C 396.972656 709.355469 394.90625 707.054688 393.34375 702.050781 C 392.511719 699.617188 392.078125 696.597656 391.828125 693.257812 C 391.707031 689.894531 391.925781 686.203125 392.621094 682.394531 C 393.375 678.585938 394.511719 675.066406 395.84375 671.964844 C 397.28125 668.941406 398.757812 666.285156 400.390625 664.320312 C 403.535156 660.269531 406.363281 658.703125 406.648438 659.089844 " fill-opacity="1" fill-rule="nonzero"/></g></g></g><g clip-path="url(#60da9fa61c)"><g clip-path="url(#0e4ae7b7dc)"><g clip-path="url(#4a4567f7ce)"><path fill="#000000" d="M 320.5625 480.84375 C 320.851562 481.332031 318.136719 483.410156 313.441406 486.390625 C 308.679688 489.253906 301.90625 492.722656 294.464844 496.335938 C 292.589844 497.308594 290.773438 498.246094 289.019531 499.152344 C 288.15625 499.582031 287.285156 500.027344 286.445312 500.445312 L 285.789062 500.769531 L 285.332031 501.0625 C 284.953125 501.300781 284.554688 501.550781 284.179688 501.789062 C 281.136719 503.628906 278.433594 505.464844 275.988281 506.859375 C 274.742188 507.558594 273.652344 508.164062 272.664062 508.6875 C 271.675781 509.125 270.78125 509.492188 270.066406 509.765625 C 268.605469 510.304688 267.738281 510.492188 267.609375 510.253906 C 267.464844 510.003906 268.074219 509.371094 269.304688 508.398438 C 269.910156 507.90625 270.660156 507.332031 271.5625 506.710938 C 272.382812 506.042969 273.363281 505.300781 274.410156 504.453125 C 276.5625 502.824219 279.089844 500.773438 282.164062 498.671875 C 282.53125 498.40625 282.921875 498.136719 283.289062 497.859375 C 283.546875 497.695312 283.574219 497.644531 284 497.390625 L 284.625 497.050781 C 285.46875 496.597656 286.316406 496.121094 287.171875 495.664062 C 288.910156 494.707031 290.71875 493.742188 292.574219 492.75 C 300.203125 489.066406 307.132812 486.023438 312.125 483.835938 C 317.042969 481.554688 320.277344 480.355469 320.5625 480.84375 " fill-opacity="1" fill-rule="nonzero"/></g></g></g><g clip-path="url(#a3a42cba2b)"><g clip-path="url(#c6d8fde699)"><g clip-path="url(#c5558f8216)"><path fill="#000000" d="M 363.917969 625.710938 C 364.277344 626.261719 362 628.121094 359.160156 631.652344 C 357.75 633.421875 356.242188 635.652344 354.980469 638.328125 C 353.726562 641 352.644531 644.085938 351.917969 647.480469 C 350.496094 654.265625 350.46875 660.722656 350.367188 665.402344 C 350.332031 670.058594 350.257812 673.0625 349.675781 673.125 C 349.144531 673.175781 348.230469 670.371094 347.527344 665.585938 C 346.878906 660.828125 346.425781 654.035156 347.964844 646.613281 C 348.769531 642.929688 350.089844 639.507812 351.691406 636.605469 C 353.308594 633.710938 355.242188 631.40625 357.054688 629.710938 C 360.738281 626.347656 363.671875 625.308594 363.917969 625.710938 " fill-opacity="1" fill-rule="nonzero"/></g></g></g><g clip-path="url(#d68d532cab)"><g clip-path="url(#5fc111ef2a)"><g clip-path="url(#dbd9a5a4cd)"><path fill="#000000" d="M 321.746094 590.0625 C 322.171875 590.496094 320.304688 592.976562 317.609375 597.035156 C 314.933594 601.101562 311.5 606.882812 309.96875 613.949219 C 308.386719 621.003906 309.015625 627.730469 309.574219 632.558594 C 310.1875 637.328125 310.710938 640.5 310.148438 640.671875 C 309.617188 640.773438 308.167969 638.089844 306.765625 633.109375 C 305.480469 628.25 304.273438 620.957031 305.992188 613.0625 C 307.738281 605.160156 311.972656 599.070312 315.328125 595.300781 C 318.785156 591.515625 321.367188 589.730469 321.746094 590.0625 " fill-opacity="1" fill-rule="nonzero"/></g></g></g><g clip-path="url(#59c05743eb)"><g clip-path="url(#9911d97818)"><g clip-path="url(#15058a0a92)"><path fill="#000000" d="M 278.5 530.273438 C 289.125 538.71875 297.210938 546.289062 296.519531 547.140625 C 295.835938 548.03125 286.644531 541.898438 275.988281 533.453125 C 265.347656 525.015625 257.261719 517.445312 257.957031 516.589844 C 258.640625 515.714844 267.832031 521.84375 278.5 530.273438 " fill-opacity="1" fill-rule="nonzero"/></g></g></g><g clip-path="url(#b9f25cab98)"><g clip-path="url(#2976c508ad)"><g clip-path="url(#23ad099c28)"><path fill="#000000" d="M 275.945312 559.722656 C 276.4375 560.09375 275.050781 562.597656 273.039062 566.546875 C 272.574219 567.554688 272.074219 568.644531 271.539062 569.828125 C 270.917969 570.980469 270.679688 572.3125 270.199219 573.601562 C 269.957031 574.277344 269.726562 574.949219 269.484375 575.636719 C 269.3125 576.417969 269.164062 577.21875 268.996094 578.011719 C 268.847656 578.8125 268.664062 579.636719 268.496094 580.472656 L 268.242188 581.722656 L 268.121094 582.808594 C 267.257812 589.648438 266.859375 595.785156 267.035156 600.183594 C 267.109375 604.417969 268.03125 607.289062 267.449219 607.492188 C 267.015625 607.636719 265.148438 605.425781 264.191406 600.539062 C 263.257812 595.863281 263.226562 589.308594 264.105469 582.339844 L 264.1875 581.683594 L 264.214844 581.355469 L 264.238281 581.195312 L 264.3125 580.847656 L 264.578125 579.59375 C 264.777344 578.765625 264.953125 577.957031 265.144531 577.15625 C 265.328125 576.371094 265.539062 575.582031 265.707031 574.804688 C 266.015625 574.011719 266.34375 573.238281 266.640625 572.507812 C 267.300781 571.035156 267.746094 569.542969 268.507812 568.359375 C 269.257812 567.183594 269.953125 566.105469 270.574219 565.09375 C 273.359375 561.300781 275.5625 559.417969 275.945312 559.722656 " fill-opacity="1" fill-rule="nonzero"/></g></g></g><g clip-path="url(#3e2b8a2221)"><g clip-path="url(#a3650b6a5a)"><g clip-path="url(#05188fcce7)"><path fill="#000000" d="M 237.195312 523.070312 C 237.40625 523.164062 236.683594 523.226562 237.09375 523.101562 C 237.132812 523.089844 237.15625 523.082031 237.195312 523.070312 " fill-opacity="1" fill-rule="nonzero"/></g></g></g><g clip-path="url(#cfdae415c5)"><g clip-path="url(#35ce3a0c24)"><g clip-path="url(#18915053dc)"><path fill="#000000" d="M 237.890625 528.070312 C 238.339844 528.453125 236.609375 531.101562 234.496094 535.644531 C 232.359375 540.164062 229.902344 546.671875 228.554688 554.128906 C 227.914062 557.851562 227.652344 561.429688 227.703125 564.660156 C 227.914062 567.871094 228.242188 570.769531 229.023438 573.082031 C 230.328125 577.601562 232.453125 580.332031 231.878906 580.703125 C 231.5625 580.949219 228.75 579.222656 226.351562 574.097656 C 225.105469 571.644531 224.449219 568.441406 224 564.910156 C 223.710938 561.34375 223.898438 557.421875 224.570312 553.429688 C 226.054688 545.410156 229.078125 538.648438 232 534.238281 C 234.914062 529.792969 237.53125 527.714844 237.890625 528.070312 " fill-opacity="1" fill-rule="nonzero"/></g></g></g></svg>